<?xml version="1.0" encoding="UTF-8"?>
<svg width="253px" height="50px" viewBox="0 0 253 50" version="1.1" xmlns="http://www.w3.org/2000/svg" xmlns:xlink="http://www.w3.org/1999/xlink">
    <!-- Generator: Sketch 45.1 (43504) - http://www.bohemiancoding.com/sketch -->
    <title>Kobo</title>
    <desc>Created with Sketch.</desc>
    <defs></defs>
    <g id="Page-1" stroke="none" stroke-width="1" fill="none" fill-rule="evenodd">
        <g id="Kobo" fill-rule="nonzero">
            <g id="Group" transform="translate(45.851210, 9.606920)" fill="#2196F3">
                <path d="M0.154584079,0.413097568 L4.02224281,0.413097568 L4.02224281,14.8616872 L4.155648,14.8616872 C4.95586078,13.7058 5.75607356,12.6387769 6.51196351,11.6606177 L15.6699785,0.413097568 L20.4712552,0.413097568 L9.62373229,13.1276381 L21.3157908,30.3768633 L16.7367833,30.3768633 L6.86741956,15.6616816 L4.02224281,18.9516151 L4.02224281,30.3768633 L0.154584079,30.3768633 L0.154584079,0.413097568 L0.154584079,0.413097568 Z" id="Shape"></path>
                <path d="M40.2992835,19.4404763 C40.2992835,27.398063 34.786658,30.8659429 29.5851657,30.8659429 C23.761407,30.8659429 19.2712635,26.5980686 19.2712635,19.7961507 C19.2712635,12.5942357 23.9836762,8.37068423 29.9408401,8.37068423 C36.1202732,8.37068423 40.2992835,12.8608277 40.2992835,19.4404763 Z M23.2277863,19.6629639 C23.2277863,24.3751582 25.9395579,27.9316838 29.7628937,27.9316838 C33.4973656,27.9316838 36.2980012,24.4196994 36.2980012,19.5738815 C36.2980012,15.9287103 34.4753064,11.3049433 29.8517578,11.3049433 C25.2282091,11.3049433 23.2277863,15.5728176 23.2277863,19.6629639 Z" id="Shape"></path>
                <path d="M42.0778737,0.81309479 C43.7671633,0.457420404 46.434612,0.19061003 49.1466019,0.19061003 C53.0142607,0.19061003 55.5039814,0.857417626 57.370999,2.36897918 C58.9268834,3.52486635 59.8605013,5.30301994 59.8605013,7.65933545 C59.8605013,10.5490534 57.9489425,13.0830969 54.7924142,14.2389841 L54.7924142,14.3278481 C57.637591,15.0391969 60.9718473,17.395294 60.9718473,21.8411147 C60.9718473,24.4196994 59.9493653,26.3757994 58.4378038,27.8428197 C56.3482986,29.7543785 52.9697195,30.6434553 48.0793604,30.6434553 C45.4119117,30.6434553 43.3669477,30.4657273 42.0776554,30.2877809 L42.0776554,0.81309479 L42.0778737,0.81309479 Z M45.9457508,13.0830969 L49.4577351,13.0830969 C53.5476631,13.0830969 55.9485198,10.9492689 55.9485198,8.05955102 C55.9485198,4.54756667 53.281071,3.1694103 49.3688711,3.1694103 C47.5904992,3.1694103 46.5680172,3.30281549 45.9457508,3.43622068 L45.9457508,13.0830969 Z M45.9457508,27.4426042 C46.7014224,27.575791 47.8129867,27.6203322 49.1911431,27.6203322 C53.192207,27.6203322 56.8821377,26.1530935 56.8821377,21.7965735 C56.8821377,17.7066456 53.3701534,16.0169193 49.1466019,16.0169193 L45.9457508,16.0169193 L45.9457508,27.4426042 L45.9457508,27.4426042 Z" id="Shape"></path>
                <path d="M82.4003011,19.4404763 C82.4003011,27.398063 76.8876756,30.8659429 71.6861834,30.8659429 C65.8624247,30.8659429 61.3722812,26.5980686 61.3722812,19.7961507 C61.3722812,12.5942357 66.0846939,8.37068423 72.0418578,8.37068423 C78.2212908,8.37068423 82.4003011,12.8608277 82.4003011,19.4404763 Z M65.328804,19.6629639 C65.328804,24.3751582 68.0405755,27.9316838 71.8639114,27.9316838 C75.5983833,27.9316838 78.3990189,24.4196994 78.3990189,19.5738815 C78.3990189,15.9287103 76.5763241,11.3049433 71.9527754,11.3049433 C67.3292267,11.3049433 65.328804,15.5728176 65.328804,19.6629639 Z" id="Shape"></path>
            </g>
            <g id="Group" transform="translate(124.453284, 8.296886)" fill="#2196F3">
                <polygon id="Shape" points="9.3121624 5.01284728 0.198688577 5.01284728 0.198688577 1.72313214 22.3825957 1.72313214 22.3825957 5.01284728 13.2245806 5.01284728 13.2245806 31.6868978 9.3121624 31.6868978"></polygon>
                <path d="M38.565016,20.7505109 C38.565016,28.7080976 33.0523906,32.1759774 27.8508983,32.1759774 C22.0271396,32.1759774 17.5369961,27.9081031 17.5369961,21.1061853 C17.5369961,13.9042703 22.2494088,9.6807188 28.2065727,9.6807188 C34.3857874,9.6807188 38.565016,14.1708623 38.565016,20.7505109 Z M21.4935189,20.9729985 C21.4935189,25.6851928 24.2052904,29.2417183 28.0286263,29.2417183 C31.7630982,29.2417183 34.5637338,25.729734 34.5637338,20.8839161 C34.5637338,17.2387449 32.741039,12.6149779 28.1177087,12.6149779 C23.4943783,12.6149779 21.4935189,16.8828522 21.4935189,20.9729985 Z" id="Shape"></path>
                <path d="M59.6377954,20.7505109 C59.6377954,28.7080976 54.12517,32.1759774 48.923896,32.1759774 C43.099919,32.1759774 38.6099939,27.9081031 38.6099939,21.1061853 C38.6099939,13.9042703 43.3224066,9.6807188 49.2795704,9.6807188 C55.4590035,9.6807188 59.6377954,14.1708623 59.6377954,20.7505109 Z M42.5662983,20.9729985 C42.5662983,25.6851928 45.2782882,29.2417183 49.1016241,29.2417183 C52.836096,29.2417183 55.6369499,25.729734 55.6369499,20.8839161 C55.6369499,17.2387449 53.8140368,12.6149779 49.1907064,12.6149779 C44.5673761,12.6149779 42.5662983,16.8828522 42.5662983,20.9729985 Z" id="Shape"></path>
                <polygon id="Shape" points="61.2829805 0.122706571 65.1951804 0.122706571 65.1951804 31.6868978 61.2829805 31.6868978"></polygon>
                <path d="M68.3073859,31.6868978 C68.3960316,30.2198775 68.4851139,28.0415083 68.4851139,26.1299495 L68.4851139,0.122706571 L72.3527726,0.122706571 L72.3527726,13.6374599 L72.4416367,13.6374599 C73.819793,11.2368215 76.3095137,9.6807188 79.7769569,9.6807188 C85.1118543,9.6807188 88.8906491,14.1263211 88.8461079,20.6614286 C88.8461079,28.3524232 84.0005083,32.1757591 79.1990133,32.1757591 C76.0870262,32.1757591 73.5975238,30.9753307 71.9970983,28.130154 L71.8639114,28.130154 L71.6861834,31.6866795 L68.3073859,31.6866795 L68.3073859,31.6868978 Z M72.3527726,23.0622853 C72.3527726,23.5511465 72.4416367,24.0402261 72.5305007,24.4849828 C73.2863906,27.1969727 75.5536238,29.0639903 78.3988005,29.0639903 C82.4887285,29.0639903 84.933908,25.729734 84.933908,20.7952704 C84.933908,16.482855 82.711216,12.7929243 78.5322057,12.7929243 C75.864757,12.7929243 73.3752546,14.615619 72.5752602,17.5944193 C72.4861778,18.0387394 72.3527726,18.5723601 72.3527726,19.1948449 L72.3527726,23.0622853 L72.3527726,23.0622853 Z" id="Shape"></path>
                <path d="M109.96321,20.7505109 C109.96321,28.7080976 104.450585,32.1759774 99.2490924,32.1759774 C93.4253337,32.1759774 88.9351902,27.9081031 88.9351902,21.1061853 C88.9351902,13.9042703 93.6476029,9.6807188 99.6047668,9.6807188 C105.783982,9.6807188 109.96321,14.1708623 109.96321,20.7505109 Z M92.891713,20.9729985 C92.891713,25.6851928 95.6034845,29.2417183 99.4268204,29.2417183 C103.161292,29.2417183 105.961928,25.729734 105.961928,20.8839161 C105.961928,17.2387449 104.139233,12.6149779 99.5159028,12.6149779 C94.8925724,12.6149779 92.891713,16.8828522 92.891713,20.9729985 Z" id="Shape"></path>
                <path d="M112.808605,10.1697984 L115.87627,14.793347 C116.676264,15.9937754 117.34329,17.1051214 118.054639,18.3055497 L118.188044,18.3055497 C118.899393,17.0162574 119.610741,15.904693 120.321872,14.7488059 L123.344995,10.1697984 L127.568328,10.1697984 L120.232789,20.5727829 L127.790597,31.6868978 L123.344995,31.6868978 L120.188467,26.8412983 C119.343713,25.5965471 118.632364,24.3961188 117.876692,23.1068264 L117.787828,23.1068264 C117.07648,24.3959004 116.32059,25.5517876 115.520595,26.8412983 L112.40839,31.6868978 L108.096193,31.6868978 L115.742646,20.7059697 L108.451649,10.1697984 L112.808605,10.1697984 L112.808605,10.1697984 Z" id="Shape"></path>
            </g>
            <g id="Group">
                <path d="M30.3991339,49.9653735 L4.67201996,49.9653735 C2.16985393,49.9653735 0.141265395,47.936785 0.141265395,45.434619 L0.141265395,4.56940058 C0.141265395,2.06701621 2.16985393,0.0384276807 4.67201996,0.0384276807 L30.3991339,0.0384276807 C32.9015182,0.0384276807 34.9298884,2.06701621 34.9298884,4.56940058 L34.9298884,45.434619 C34.9298884,47.936785 32.9015182,49.9653735 30.3991339,49.9653735" id="Shape" fill="#2196F3"></path>
                <path d="M22.3251725,39.6307291 L12.8916135,39.6307291 C10.4320236,39.6307291 8.43815101,37.6368565 8.43815101,35.177485 L8.43815101,14.8267529 C8.43815101,12.367163 10.4320236,10.3732904 12.8916135,10.3732904 L22.3251725,10.3732904 C24.7847624,10.3732904 26.778635,12.367163 26.778635,14.8267529 L26.778635,35.177485 C26.778635,37.6368565 24.7847624,39.6307291 22.3251725,39.6307291" id="Shape" fill="#FFFFFF"></path>
                <path d="M19.1725743,34.2449587 L16.0442117,34.2449587 C13.6924813,34.2449587 11.7859444,32.33864 11.7859444,29.9866913 L11.7859444,20.1627421 C11.7859444,17.8110117 13.6924813,15.9044747 16.0442117,15.9044747 L19.1723559,15.9044747 C21.5240863,15.9044747 23.4306233,17.8110117 23.4306233,20.1627421 L23.4306233,29.9866913 C23.4306233,32.3384217 21.5243047,34.2449587 19.1725743,34.2449587" id="Shape" fill="#2196F3"></path>
            </g>
        </g>
    </g>
</svg>