<?xml version="1.0" encoding="UTF-8"?>
<svg width="375px" height="667px" viewBox="0 0 375 667" version="1.1" xmlns="http://www.w3.org/2000/svg" xmlns:xlink="http://www.w3.org/1999/xlink">
    <!-- Generator: Sketch 43.2 (39069) - http://www.bohemiancoding.com/sketch -->
    <title>Geolocation on map@2x</title>
    <desc>Created with Sketch.</desc>
    <defs>
        <path d="M24,48 C37.254834,48 48,37.254834 48,24 C48,10.745166 37.254834,0 24,0 C10.745166,0 0,10.745166 0,24 C0,37.254834 10.745166,48 24,48 Z" id="path-1"></path>
        <filter x="-10.4%" y="-10.4%" width="129.2%" height="129.2%" filterUnits="objectBoundingBox" id="filter-2">
            <feOffset dx="2" dy="2" in="SourceAlpha" result="shadowOffsetOuter1"></feOffset>
            <feGaussianBlur stdDeviation="2" in="shadowOffsetOuter1" result="shadowBlurOuter1"></feGaussianBlur>
            <feColorMatrix values="0 0 0 0 0   0 0 0 0 0   0 0 0 0 0  0 0 0 0.5 0" type="matrix" in="shadowBlurOuter1"></feColorMatrix>
        </filter>
        <rect id="path-3" x="0" y="0" width="348" height="57" rx="1"></rect>
        <filter x="-1.0%" y="-6.1%" width="103.2%" height="119.3%" filterUnits="objectBoundingBox" id="filter-4">
            <feOffset dx="2" dy="2" in="SourceAlpha" result="shadowOffsetOuter1"></feOffset>
            <feGaussianBlur stdDeviation="1.5" in="shadowOffsetOuter1" result="shadowBlurOuter1"></feGaussianBlur>
            <feComposite in="shadowBlurOuter1" in2="SourceAlpha" operator="out" result="shadowBlurOuter1"></feComposite>
            <feColorMatrix values="0 0 0 0 0.473028274   0 0 0 0 0.473028274   0 0 0 0 0.473028274  0 0 0 0.5 0" type="matrix" in="shadowBlurOuter1"></feColorMatrix>
        </filter>
        <rect id="path-5" x="0" y="0" width="375" height="63"></rect>
        <filter x="-1.1%" y="-9.5%" width="102.1%" height="112.7%" filterUnits="objectBoundingBox" id="filter-6">
            <feOffset dx="0" dy="-2" in="SourceAlpha" result="shadowOffsetOuter1"></feOffset>
            <feGaussianBlur stdDeviation="1" in="shadowOffsetOuter1" result="shadowBlurOuter1"></feGaussianBlur>
            <feColorMatrix values="0 0 0 0 0   0 0 0 0 0   0 0 0 0 0  0 0 0 0.329144022 0" type="matrix" in="shadowBlurOuter1"></feColorMatrix>
        </filter>
    </defs>
    <g id="Page-1" stroke="none" stroke-width="1" fill="none" fill-rule="evenodd">
        <g id="Geolocation-on-map">
            <g id="map" transform="translate(-373.000000, -734.000000)">
                <rect id="Rectangle-1" fill="#A3CCFF" x="126" y="0" width="816" height="1496"></rect>
                <g id="vietnamHigh" transform="translate(0.000000, 248.000000)" stroke-width="0.5" stroke="#FCD395" fill="#F3F1ED">
                    <g id="Group">
                        <polygon id="VN-01" points="528.190368 281.003796 543.169663 284.582377 552.021065 293.102807 561.468234 295.914549 563.425756 301.623238 572.192048 302.816098 575.426214 312.785001 568.106785 315.767152 567.170579 324.884013 582.745642 342.350895 580.617901 350.530508 584.362725 353.93868 584.618054 356.750422 592.022592 362.544315 595.086538 370.468315 603.597501 372.34281 603.342172 377.029047 611.257368 382.396918 613.895767 382.056101 613.895767 382.056101 616.193727 386.657133 625.300457 385.975499 632.960324 389.724488 630.662364 394.751542 636.960477 411.53679 642.152164 413.837306 636.19449 430.53735 630.236816 434.286339 624.960019 441.869523 632.449666 452.094039 639.428656 457.887932 640.449971 461.722125 646.662974 463.59662 647.343852 471.265008 657.812336 477.144105 665.216874 473.565524 687.090049 471.435416 689.898667 472.628276 701.558686 468.112448 710.239869 471.776233 718.155064 479.615029 718.750832 496.65589 724.453177 499.552837 723.602081 502.875805 725.474493 504.579891 719.942367 507.647246 720.963682 511.396235 716.537981 517.360536 721.47434 518.894214 722.070107 522.217182 729.644864 524.006472 745.305037 538.746817 745.815694 542.410602 751.007382 548.545312 751.773368 558.940237 755.858631 561.666775 758.497029 568.057097 764.965361 571.380065 764.965361 575.981098 762.156743 578.878044 763.433388 581.519377 773.476324 584.671937 783.519261 596.941357 794.668622 599.838303 793.647307 608.358733 797.307021 615.089873 794.413293 626.933272 800.796516 635.794519 802.583818 642.184842 801.051845 653.346606 806.413751 659.736929 802.754037 665.70123 814.669386 681.038005 814.669386 681.038005 808.286163 684.616586 804.286011 691.006909 803.690243 695.863554 795.945267 704.29878 789.732264 701.657447 785.561892 697.397231 779.774437 702.50949 774.157201 702.765103 770.752816 709.325834 772.11457 729.093233 785.476782 741.959083 784.881015 746.474911 796.626144 755.250954 800.285858 761.215255 799.86031 765.560675 807.179738 774.507127 805.137107 780.89745 799.945419 781.834697 800.966735 787.969407 798.668775 786.691342 793.902636 788.906654 791.264237 787.202568 783.859699 788.480633 785.136344 794.189321 781.987287 799.983214 786.498098 803.306182 787.434304 807.82201 787.434304 807.82201 779.859547 810.633752 772.965667 807.310784 769.220843 803.732203 767.944198 814.55315 756.709727 812.167429 754.411767 807.82201 749.986066 805.351085 747.943435 787.62859 744.794379 791.547988 738.751595 788.991859 736.113196 790.440332 728.36822 778.256116 725.304273 778.256116 723.431861 770.843342 712.963377 770.928546 712.2825 766.923944 714.920898 756.95504 702.409783 755.847384 699.516055 757.892288 693.7286 750.905535 687.004939 748.775427 686.91983 742.811126 690.919982 741.021835 698.49474 723.640157 695.601012 722.958523 695.175464 720.658007 691.005092 720.658007 691.345531 711.881963 681.387704 703.446737 683.770773 694.670694 673.387399 689.64364 671.004329 677.118607 667.259505 671.23951 657.557007 670.898693 649.812031 665.1048 647.343852 660.333359 624.364251 655.306305 619.853441 652.068541 611.342478 654.454262 605.640132 660.929789 606.406119 669.535424 604.448598 673.284413 600.448445 675.499725 598.746252 680.100758 598.746252 680.100758 588.447987 674.988499 585.043602 667.746134 579.426366 661.611424 579.851914 658.629273 579.851914 658.629273 586.064917 653.43181 586.064917 653.43181 579.937024 640.310347 575.766652 638.350648 572.106938 639.799122 569.979197 634.857272 566.064154 631.619508 558.829836 604.780153 552.616832 598.219421 552.701942 592.084711 551.084859 591.06226 526.232847 592.510733 520.530502 597.282174 519.338967 602.138819 514.828156 605.887809 515.423924 611.340884 506.232084 614.067422 504.955439 624.632755 500.27441 630.171035 501.125506 634.090433 508.189605 642.440455 507.934276 645.678219 504.615001 647.723122 486.997307 642.696068 473.379766 633.067982 466.656105 633.83482 454.910976 628.381745 446.485123 630.171035 445.804246 632.897573 443.421176 633.494003 435.59109 626.50725 433.463349 620.628153 425.037496 617.219981 418.994712 631.875121 421.88844 634.090433 421.462891 638.18024 407.504912 635.453702 399.504607 642.014434 395.334235 641.844025 389.54678 638.521057 384.695531 641.247595 380.184721 640.395552 378.227199 647.637918 373.886608 652.664972 365.716083 650.44966 363.162794 647.382305 364.354329 645.422606 362.567027 641.418003 355.247599 633.920025 349.119705 632.301143 348.438828 628.722562 351.672994 624.291938 350.736788 619.77611 341.20451 622.076626 330.480696 629.574605 325.884776 626.848067 321.203746 628.040928 317.96958 636.561358 313.969428 633.579207 300.266777 633.920025 295.755967 629.915422 281.11711 623.780712 280.266014 622.161831 282.649084 617.39039 277.202067 609.892411 275.159436 610.233228 267.244241 603.502088 264.605842 596.600539 266.052706 593.021959 264.690952 584.501528 268.776214 581.093356 271.669941 566.353011 259.499264 551.953484 251.669178 551.612667 244.26464 548.034086 237.45587 540.621311 231.498196 544.796322 242.307119 552.720323 246.817929 566.182603 246.051943 570.954044 243.158215 573.424969 237.966528 585.52398 227.668262 581.604582 227.668262 581.604582 222.987233 582.030603 222.987233 582.030603 219.667957 576.321915 216.093352 575.214259 211.922981 570.698431 212.00809 553.65757 205.19932 551.186645 193.62441 541.302946 186.81564 541.728967 182.475048 549.482559 177.964238 549.908581 169.793713 545.137139 165.368013 541.473354 162.899833 532.441698 154.899528 524.006472 147.154552 509.52174 139.579794 502.449783 140.005343 498.956407 136.430738 493.758944 126.472911 488.987503 124.685609 482.00075 119.238593 480.722685 108.855218 470.157352 111.153178 463.767029 113.961796 466.067545 113.280919 459.336405 110.897849 455.417007 111.919164 446.385351 108.940327 442.551157 98.5569524 439.142985 96.5994309 432.156232 91.9184012 431.815415 92.0035108 424.743457 88.0033582 417.756704 89.6204412 413.666898 84.0883152 410.599543 80.68393 405.913306 80.3434914 399.352575 80.3434914 399.352575 92.5992783 395.347972 88.8544545 384.782639 100.429364 382.141305 113.280919 364.333606 120.770566 362.118294 119.493922 359.136143 114.132015 358.198896 106.897696 345.503454 106.301929 339.198336 111.153178 336.557002 117.5364 339.027927 129.11131 331.018723 132.856134 320.027367 138.38826 316.278378 135.92008 311.506937 136.345628 306.565087 139.069137 302.134463 143.154399 298.385474 147.665209 298.385474 149.367402 293.95485 157.282598 293.614033 162.304066 294.977302 174.389633 305.201818 180.262198 315.255926 185.538995 319.516141 187.922065 329.570249 194.815945 328.377389 196.347918 320.538593 201.709825 316.022765 204.433333 315.937561 226.136289 336.301389 239.924049 330.677905 248.690341 334.512099 250.392534 340.817218 256.605537 341.669261 261.797224 347.548358 268.520885 347.122336 274.563669 356.750422 282.393755 362.373907 284.947044 366.80453 297.458159 368.679025 301.288093 366.463713 310.054385 369.95709 317.884471 373.961692 318.990896 378.307111 325.203899 383.674983 322.480391 390.491327 327.076311 394.325521 332.948876 405.40208 338.566111 415.200575 339.672536 422.01692 344.183347 423.380189 352.183652 433.945522 356.609353 435.564404 363.247904 437.524103 373.37595 436.927673 377.376103 445.362899 392.270288 453.712921 402.483444 452.434856 410.909297 452.179243 414.398792 449.793523 413.803025 441.61391 410.31353 438.205737 410.739078 431.559802 414.143463 423.80621 422.228878 419.460791 431.250499 418.182726 440.35723 407.702597 444.527601 406.509736 448.017096 408.725048 459.166458 400.289822 448.697973 383.078553 453.804551 370.127498 456.698279 365.356057 459.847335 360.584616 464.528365 355.983584 470.741368 357.943283 479.252331 357.176444 484.188689 348.570809 490.061254 345.077433 494.657174 346.270293 502.48726 342.180486 503.338356 332.041174 506.317193 327.099325 504.87033 315.170722 515.253705 302.304872 519.253857 293.188011 520.360282 275.806333"></polygon>
                        <polygon id="VN-02" points="931.695128 265.241 935.014403 262.855279 940.546529 266.007838 938.844337 274.528269 933.737759 295.062506 934.929294 300.515582 939.695433 306.905904 940.206091 312.529389 944.121134 312.614593 954.33429 318.323281 962.845253 317.386034 969.994462 321.816658 972.207312 327.440142 972.207312 327.440142 969.654023 337.238637 980.803385 344.651411 996.889105 341.669261 1002.08079 348.911626 1002.25101 354.364702 1007.78314 365.01524 1013.91103 370.212703 1025.57105 373.53567 1026.67748 392.195413 1022.67732 393.814295 1016.88987 391.258166 1009.48533 392.110209 1007.69803 406.680145 1004.37875 413.240876 1012.80461 416.819457 1017.23031 425.680705 1030.50741 434.456748 1026.59237 441.61391 1019.44316 446.811372 1021.74112 453.798125 1028.29456 463.511416 1038.08217 465.556319 1041.48655 472.969094 1045.82714 472.713481 1063.70017 483.449223 1066.59389 487.879847 1063.70017 493.844148 1066.679 496.911503 1073.48777 496.315073 1078.50924 499.382428 1071.44514 507.476837 1077.48793 514.889611 1077.57303 521.024321 1068.80674 530.055978 1062.84907 532.186085 1061.74264 535.083032 1065.57258 548.289699 1070.33872 549.993785 1075.5304 548.800925 1077.57303 545.477957 1080.8072 546.500408 1080.8072 546.500408 1079.36034 555.106043 1082.67961 560.814731 1085.31801 561.58157 1092.63744 557.917785 1099.10577 560.899936 1093.65876 564.393312 1093.1481 568.227506 1098.08446 583.308668 1094.76518 580.411722 1087.95641 581.860195 1086.16911 578.19641 1082.16896 578.366818 1079.19012 581.008152 1079.19012 585.694388 1081.6583 589.102561 1077.99858 591.488281 1079.9561 596.770948 1077.91347 598.98626 1077.06238 607.336282 1078.93479 611.511293 1075.36018 612.789357 1074.08354 618.412841 1069.82806 624.12153 1064.12571 621.394992 1062.33841 617.560798 1054.50833 612.704153 1049.31664 605.206174 1049.31664 605.206174 1044.38028 602.394432 1044.38028 602.394432 1035.61399 596.344926 1029.91164 588.165313 1024.03908 585.438775 1021.5709 576.833141 1015.69833 576.918345 1008.88956 570.442818 1005.22985 569.931592 1000.03816 574.277012 1000.80415 576.236711 997.910421 577.514775 996.463557 581.008152 991.016541 581.604582 994.420926 589.187765 997.740201 590.551034 998.846627 595.066862 997.144434 600.690346 1000.71904 609.636798 998.506188 608.614346 993.910268 615.771508 993.48472 619.861314 988.8888 621.735809 988.8888 631.193487 987.186607 632.471551 991.356979 634.346046 994.676255 642.099638 996.889105 642.355251 1004.46386 651.812929 1007.69803 669.194607 1011.18752 677.459424 1009.82577 686.320672 1012.12373 691.006909 1009.82577 695.948758 992.208075 707.025318 991.442089 712.989619 977.484109 724.4922 971.015777 719.550351 970.3349 716.142178 967.015625 713.245232 964.972993 703.957963 950.674576 699.612543 946.504204 693.648242 942.163612 696.545188 934.163307 697.56764 919.524451 689.814048 914.673202 689.388027 913.651886 693.477833 923.099055 701.657447 921.567082 707.962565 923.099055 711.541146 915.354079 716.738609 907.268664 718.613103 882.927309 714.438092 877.139855 709.496243 862.330779 704.980415 854.926241 710.603899 839.436288 704.724802 836.882999 706.08807 825.393199 704.043167 819.605744 699.868156 816.626907 694.755898 819.265306 691.177317 819.009977 686.831898 814.414057 680.952801 814.414057 680.952801 802.498708 665.616026 806.243532 659.651725 800.881625 653.261402 802.413599 642.099638 800.711406 635.709315 794.243074 626.762863 797.136802 614.919465 793.477088 608.188325 794.498403 599.667894 783.349041 596.770948 773.306105 584.501528 763.263169 581.348969 762.071634 578.707635 764.880252 575.810689 764.880252 571.294861 758.41192 567.971893 755.858631 561.496366 751.688259 558.769828 750.922272 548.374903 745.730585 542.240193 745.134817 538.576408 729.474645 523.836063 721.899888 522.046773 721.304121 518.723805 716.367762 517.104923 720.878572 511.140622 719.857257 507.391633 725.389383 504.324278 723.516971 502.620192 724.368067 499.297224 718.665722 496.400277 718.069955 479.359416 710.154759 471.52062 701.473577 467.856835 689.813557 472.372664 686.91983 471.265008 665.046655 473.309911 657.727226 476.888492 647.258742 471.009395 646.577865 463.341007 640.364862 461.466513 639.343546 457.632319 632.364557 451.838426 624.874909 441.61391 630.151706 434.115931 636.10938 430.281737 642.067054 413.666898 636.875367 411.366382 630.662364 394.581134 632.875214 389.55408 625.215348 385.80509 616.108617 386.486725 613.810657 381.885692 613.810657 381.885692 620.704537 373.109649 623.257826 362.629519 631.59857 359.306552 635.258284 349.593261 628.619733 338.261088 629.2155 329.399841 643.343699 311.677345 645.982097 305.62784 648.705606 299.407926 652.961087 296.681388 652.109991 291.398721 654.237732 289.439022 659.088981 288.757388 662.067818 285.775237 670.493671 289.865044 674.408714 299.663539 679.85573 302.049259 682.579239 307.843152 689.047571 310.484485 705.38862 326.162077 704.452414 330.848314 709.388772 334.086078 710.239869 336.983024 718.155064 336.983024 738.070718 360.840229 743.092186 371.661176 749.730737 376.773434 754.156438 383.163757 760.199222 386.742338 766.412225 396.200015 769.391062 397.307671 772.880557 395.177564 783.263932 406.594941 788.625839 409.15107 791.349347 414.092919 798.158117 416.563844 800.966735 421.846511 804.37112 423.976619 811.775658 424.061823 817.222675 418.182726 822.83991 419.119973 826.159186 417.245479 823.520787 408.980661 825.308089 406.339328 825.648528 399.096962 827.265611 389.383671 834.840368 359.221347 835.010587 353.93868 830.329558 351.212143 830.244448 343.884573 834.585039 339.539153 838.159644 320.964615 841.478919 315.341131 849.734553 304.946205 860.117928 298.044657 862.756327 289.439022 871.607729 278.618075 877.310074 278.021645 880.033582 281.344613 882.671981 281.259409 888.970093 279.044097 893.651123 274.102247 898.247043 274.613473 906.247348 270.268054 916.715833 269.245602 927.865194 262.68487"></polygon>
                        <polygon id="VN-05" points="598.831362 679.674736 600.533555 675.073704 604.533707 672.858392 606.491229 669.194607 605.725242 660.588972 611.427587 654.198649 619.93855 651.812929 624.449361 655.050692 647.428961 660.077746 649.89714 664.849187 657.642117 670.64308 667.344615 671.069101 671.089438 676.948198 673.472508 689.473231 683.855883 694.500285 681.472813 703.276328 691.43064 711.796759 691.090202 720.572802 695.260574 720.572802 695.686122 722.873318 698.579849 723.554953 691.005092 740.936631 687.004939 742.811126 687.090049 748.860631 693.81371 751.075943 699.601165 758.062696 702.494892 756.017793 715.006008 757.210653 712.367609 767.179557 713.048486 771.184159 723.516971 771.098955 725.389383 778.511729 728.45333 778.511729 736.283416 790.695945 738.921814 789.247472 744.964598 791.718396 748.113654 787.798998 750.156285 805.521494 754.581986 807.992419 756.879946 812.337838 768.114418 814.723559 769.391062 803.902612 772.540118 807.651601 779.519108 810.974569 787.093865 808.162827 787.093865 808.162827 793.647307 812.167429 793.391978 822.221537 804.115791 822.136333 807.264848 824.948075 814.158728 818.216935 815.520482 820.176634 819.180196 819.324591 823.605897 820.943473 824.627212 823.925623 827.946488 821.795516 832.967956 822.391946 833.393504 820.858268 842.755564 827.930226 855.351789 831.167989 860.883915 835.002183 866.330931 832.701667 871.863057 833.127688 876.799416 830.486355 891.097834 828.867473 898.247043 832.190441 906.587787 832.701667 911.268816 828.867473 915.268969 821.965924 918.247806 820.773064 933.56754 821.795516 936.376158 825.288892 948.546835 826.140935 952.376768 830.230742 960.547293 828.61186 971.015777 830.145538 971.526435 835.683817 967.356063 837.558312 956.291811 851.446614 948.206396 855.53642 952.802316 868.913496 948.802164 870.191561 943.525367 878.371174 950.844795 890.555389 951.525672 897.542142 947.014861 906.488594 946.163765 915.946272 948.291506 919.950874 954.759838 924.040681 953.398084 931.53866 962.504814 936.48051 967.781611 946.279005 973.228628 945.341757 972.547751 942.700424 975.10104 941.422359 983.697112 950.283607 990.335663 948.920338 994.335816 950.113198 996.889105 953.776983 1006.08095 959.315263 1006.93204 967.750489 1012.20884 972.095909 1017.91118 970.221414 1028.80522 973.288769 1032.03938 972.607135 1044.29517 961.360166 1055.35942 944.063693 1069.06207 946.023392 1073.31755 944.148897 1077.48793 946.279005 1078.93479 941.763176 1081.82852 939.633069 1089.6586 943.126445 1093.65876 949.431564 1106.68053 958.122403 1109.9998 957.355564 1120.97895 962.127005 1125.57487 959.144855 1126.68129 950.368811 1129.74524 950.454015 1133.06451 947.812682 1135.53269 950.53922 1140.12861 950.624424 1145.74585 947.386661 1146.25651 959.144855 1152.12907 965.961199 1152.89506 973.459178 1156.12922 972.862748 1156.21433 975.163264 1161.32091 976.100511 1161.49113 983.513286 1165.83172 985.558189 1172.47027 981.468382 1176.72575 983.342877 1182.51321 981.383178 1182.51321 981.383178 1183.78985 987.432684 1194.59878 993.823006 1193.74768 1015.97613 1197.66272 1019.12868 1197.32229 1023.81492 1200.1309 1030.12004 1197.66272 1030.12004 1195.36476 1033.78383 1200.47134 1036.59557 1203.96084 1042.13385 1198.42871 1055.17011 1201.74799 1058.15226 1198.93937 1068.46198 1200.64156 1070.76249 1206.08858 1071.87015 1211.19516 1076.98241 1217.7486 1079.02731 1221.3232 1083.62834 1225.06803 1084.56559 1225.83401 1087.12172 1224.55737 1087.20692 1224.55737 1087.20692 1216.0464 1088.99621 1209.06741 1093.17123 1205.15237 1103.90697 1200.55645 1102.11768 1198.59893 1103.48095 1200.982 1114.4723 1205.15237 1125.29325 1211.19516 1128.95703 1215.02509 1135.17695 1217.40816 1145.57187 1229.15329 1156.13721 1237.06848 1171.47398 1254.26063 1183.91381 1254.8564 1190.47454 1264.47378 1207.5154 1262.60137 1212.03123 1266.68663 1212.79807 1265.83554 1221.48891 1257.83523 1227.2828 1261.0694 1228.56086 1264.72911 1227.2828 1275.11249 1232.82108 1269.49525 1240.83028 1266.3462 1238.95579 1263.28225 1250.28796 1260.30341 1253.35532 1261.23962 1257.10431 1269.9208 1261.62014 1269.83569 1265.28392 1265.58021 1267.24362 1257.83523 1268.09566 1255.02662 1266.56198 1252.04778 1268.35128 1243.62192 1262.21657 1240.21754 1263.92065 1237.06848 1260.17166 1230.25971 1260.34207 1227.28088 1255.91145 1221.3232 1255.65583 1211.79092 1249.18031 1208.38654 1249.18031 1201.74799 1255.74104 1192.72637 1257.61553 1191.70505 1264.68749 1195.27965 1266.39158 1192.55615 1273.71915 1197.23718 1279.51304 1191.53483 1282.40999 1193.83279 1287.69265 1191.79016 1299.70646 1195.96053 1303.45545 1195.96053 1303.45545 1196.47119 1304.64831 1184.55584 1311.20904 1182.85365 1313.85037 1181.15146 1312.74272 1175.10867 1319.47386 1176.12999 1336.59992 1176.12999 1336.59992 1168.21479 1336.77033 1168.21479 1336.77033 1165.06574 1340.77493 1159.19317 1336.42951 1155.8739 1339.83769 1150.17155 1340.77493 1144.29899 1334.38461 1141.57548 1326.88663 1138.34131 1325.94938 1130.51123 1327.14225 1129.23458 1329.78358 1125.40465 1330.72083 1124.72377 1322.88203 1119.44697 1318.11059 1115.36171 1317.17334 1112.72331 1310.86822 1109.57426 1309.67536 1104.72301 1303.28504 1104.72301 1303.28504 1103.70169 1294.509 1088.63729 1294.93502 1080.97742 1290.76001 1080.29654 1282.40999 1071.44514 1273.63394 1065.57258 1272.01506 1056.46585 1276.7013 1053.31679 1281.64315 1046.25269 1277.12732 1042.25254 1275.25282 1037.82684 1267.75485 1035.35866 1249.77674 1030.08186 1246.62418 1021.91134 1243.21601 1019.95381 1235.29201 1012.97483 1236.05884 1010.50665 1238.70018 995.612461 1223.78942 989.825006 1224.98228 986.931278 1223.95983 972.292422 1209.98633 966.930515 1207.5154 969.739133 1200.52865 968.802927 1195.84241 959.525977 1184.93626 952.291659 1182.20972 950.504356 1176.07501 945.653107 1175.05256 939.184775 1178.63114 935.184623 1187.6628 927.524756 1181.61329 928.546072 1171.21837 908.289979 1165.59488 905.73669 1160.31222 889.906299 1161.24946 882.501761 1164.48723 879.352705 1164.06121 876.714306 1155.62598 868.628891 1150.59893 862.16056 1156.73364 853.479377 1158.43772 844.627976 1163.37957 847.181265 1168.23622 843.181112 1173.7745 843.52155 1179.824 835.265916 1185.7883 820.201512 1185.19187 816.882236 1182.38013 812.371426 1182.97656 804.115791 1187.91841 798.073008 1189.79291 793.817526 1186.21433 776.88071 1185.19187 765.731348 1194.13833 755.94374 1205.98172 747.773216 1200.95467 738.751595 1203.68121 739.517582 1208.62306 733.389688 1210.92357 737.219622 1220.21084 736.794073 1223.19299 731.687496 1225.49351 724.027629 1233.1619 724.368067 1238.95579 728.45333 1243.64203 725.474493 1250.54358 728.708659 1259.06401 720.197695 1265.11351 713.559144 1266.64719 703.601317 1265.88035 701.728906 1271.50383 704.622633 1275.84925 704.197085 1284.45489 707.431251 1287.18143 708.367457 1292.46409 703.941756 1296.38349 695.941451 1296.38349 684.792089 1299.62125 680.877046 1299.70646 677.72799 1296.6391 677.302442 1289.31153 674.238495 1281.72835 669.302136 1283.68805 661.046502 1272.44108 648.705606 1266.98801 645.045891 1260.8533 628.364404 1258.21196 622.832278 1260.51248 616.619275 1256.33747 609.980724 1258.29717 604.278378 1255.91145 600.788883 1246.19816 592.618359 1236.39966 593.384346 1228.90168 585.55426 1221.48891 578.830599 1223.87463 575.341104 1229.66852 573.809131 1236.91089 561.978892 1235.71803 555.936108 1241.93794 549.042228 1240.48947 540.531265 1230.94659 533.977823 1232.73588 521.636927 1225.3231 511.849319 1223.87463 511.253552 1220.46646 507.423619 1216.20624 497.721121 1223.19299 483.763141 1218.08074 479.848098 1213.56491 479.082112 1209.64551 482.826935 1199.33579 473.635095 1191.15618 476.869261 1188.77045 476.869261 1188.77045 488.6995 1189.53729 499.763752 1185.53269 503.678795 1187.83321 507.593838 1183.14697 503.423466 1176.84185 501.976602 1170.36633 505.806536 1165.33927 512.445087 1164.40202 512.615306 1155.88159 507.253399 1143.01574 504.529891 1140.97084 505.210768 1139.77798 502.827698 1139.77798 506.402303 1134.66572 505.721426 1131.85398 509.210921 1129.89428 505.125659 1121.03303 505.125659 1121.03303 502.57237 1117.96568 502.57237 1117.96568 502.061712 1110.12688 504.359672 1110.5529 504.529891 1108.84882 513.040854 1110.5529 507.764057 1102.6289 508.870482 1099.90237 507.16829 1095.30133 509.721579 1093.85286 528.020149 1097.00542 544.446308 1109.87127 558.489397 1111.14933 568.702553 1107.22994 561.127796 1098.36869 557.80852 1089.76305 554.829683 1070.16606 560.19159 1066.75789 563.000207 1061.47522 569.38343 1062.58288 571.426061 1060.28236 573.213363 1048.95019 571.085622 1040.85578 572.277157 1025.94503 570.404745 1020.83277 573.724021 1014.44245 574.404898 1004.72916 569.38343 992.11892 553.978587 989.392383 542.063238 982.40563 551.340188 967.750489 549.637995 965.705586 539.33973 963.916296 537.892866 956.759134 530.573438 950.709628 526.403066 943.893284 532.020302 936.906531 536.616222 939.121843 546.574049 936.906531 547.254926 934.009585 553.638148 933.668767 564.276852 938.184596 566.659922 936.48051 575.170885 936.224897 578.319941 933.583563 577.298625 930.3458 581.383888 921.995778 577.979502 909.641154 579.596585 902.995218 583.511628 897.88296 583.17119 894.986013 593.809894 893.367132 601.214432 888.084465 608.704079 887.99926 610.406272 882.034959 609.725395 873.94055 615.42774 871.55483 614.151096 862.778786 617.470371 860.052249 618.321467 856.047646 622.23651 854.599173 627.00265 843.778226 619.172564 833.979731 625.385567 829.975129 628.279294 823.329193 634.662517 816.598053 637.471134 815.916419 642.152164 819.835817 643.854357 817.705709 632.704995 789.673493 627.938856 784.816848 626.491992 779.193364 619.087454 771.950998 621.385414 762.578524 617.129933 754.143298 618.747016 749.62747 613.725547 744.770825 610.491381 732.586609 603.427282 727.218738 597.04406 726.025878 595.852525 718.868716 593.554565 716.227383 594.916319 712.307985 591.511934 709.496243 592.873688 700.890608 595.852525 698.334479 593.809894 696.37478 599.171801 693.137016 599.512239 690.154866 602.576186 687.598736"></polygon>
                        <polygon id="VN-71" points="80.0881625 399.26737 80.5137107 405.742898 83.9180959 410.429134 89.4502219 413.496489 87.7480293 417.6715 91.8332916 424.658253 91.6630723 431.73021 96.4292116 432.071028 98.3016235 438.972576 108.684998 442.465953 111.748945 446.300146 110.72763 455.246598 113.110699 459.165996 113.791576 465.897136 110.982959 463.59662 108.684998 469.986943 119.068373 480.552277 124.51539 481.830341 126.217582 488.817094 136.260519 493.67374 139.835123 498.871202 139.409575 502.279374 147.069442 509.436536 154.814418 523.921268 162.814724 532.356494 165.282903 541.38815 169.708604 545.051935 177.879128 549.908581 182.389939 549.482559 186.81564 541.728967 193.62441 541.302946 205.19932 551.186645 212.00809 553.65757 211.922981 570.698431 215.923133 575.299463 219.497738 576.407119 222.817013 582.115808 222.817013 582.115808 227.498043 581.689786 227.498043 581.689786 237.711199 585.609184 242.987996 573.510173 245.881723 571.039248 246.64771 566.267807 242.136899 552.720323 231.327976 544.796322 237.285651 540.621311 244.094421 548.034086 251.498959 551.612667 259.414155 551.953484 271.584832 566.353011 268.691104 581.008152 264.605842 584.416324 265.967596 592.936754 264.520732 596.515335 267.159131 603.416884 275.074327 610.148024 277.116958 609.807207 282.649084 617.39039 280.266014 622.076626 281.11711 623.695508 295.755967 629.915422 300.266777 633.920025 313.969428 633.579207 317.96958 636.561358 321.203746 628.040928 325.884776 626.848067 330.480696 629.574605 341.20451 622.076626 350.736788 619.77611 351.672994 624.291938 348.353719 628.722562 349.119705 632.301143 355.247599 633.920025 362.567027 641.418003 364.354329 645.422606 363.162794 647.382305 365.716083 650.44966 373.716389 652.664972 378.142089 647.637918 380.014501 640.395552 384.610421 641.247595 389.46167 638.521057 395.249125 641.758821 399.419497 642.014434 407.419802 635.368498 421.462891 638.095036 421.80333 634.005229 418.994712 631.789917 425.037496 617.134777 433.463349 620.542949 435.505981 626.50725 443.421176 633.494003 445.804246 632.897573 446.485123 629.659809 454.996086 627.870519 466.656105 633.323595 473.464876 632.556756 487.082417 642.184842 504.70011 647.211896 508.019386 645.166993 508.189605 641.929229 501.125506 633.579207 500.27441 629.659809 504.955439 624.12153 506.317193 613.556196 515.509033 610.829658 514.913266 605.376583 519.338967 601.712798 520.530502 596.770948 526.317957 591.999507 551.169969 590.551034 552.787052 591.65869 552.701942 597.7934 558.914945 604.354131 566.064154 631.193487 569.979197 634.43125 572.192048 639.3731 575.851762 637.924627 580.022134 639.884326 586.150027 653.005789 586.150027 653.005789 579.937024 658.203251 579.937024 658.203251 579.511476 661.185402 585.128711 667.320112 588.533097 674.562478 598.831362 679.674736 598.831362 679.674736 602.405966 686.405876 599.34202 688.962005 599.001581 692.02936 593.724784 695.267124 595.767415 697.226823 592.788578 699.782952 591.426824 708.388587 594.831209 711.200329 593.384346 715.119727 595.682306 717.76106 596.87384 724.918222 603.257063 726.111082 610.321162 731.478953 613.470218 743.663169 618.491687 748.43461 616.874604 753.035642 621.130085 761.470868 618.832125 770.843342 626.236663 778.085708 627.683527 783.709192 632.364557 788.651041 643.513918 816.598053 641.811726 818.728161 637.130696 814.893967 634.322078 815.575602 627.853746 822.306742 624.960019 828.952677 618.747016 832.95728 626.491992 842.755775 621.725853 853.491517 617.81081 855.025195 616.959713 859.029797 613.640438 861.756335 614.917082 870.532378 609.214737 872.918098 609.895614 881.012507 608.193421 886.976809 600.703774 887.062013 593.299236 892.34468 582.575423 893.963562 583.000971 896.775304 579.085928 901.887562 577.468845 908.533498 580.87323 920.888122 576.787968 929.238144 577.809283 932.475907 574.660227 935.117241 566.149264 935.458058 563.766194 937.162144 553.12749 932.646316 546.744268 933.072337 546.063391 935.969284 536.190674 938.184596 531.594754 935.969284 525.977518 942.956037 530.14789 949.772381 537.552428 955.821887 538.914182 962.979048 549.212447 964.768339 550.91464 966.813242 541.63769 981.468382 553.553038 988.455135 568.957882 991.181673 573.97935 1003.70671 573.298473 1013.5052 569.979197 1019.81032 571.851609 1025.00778 570.660074 1039.91854 572.787815 1048.01294 570.915403 1059.34512 568.872772 1061.64563 562.48955 1060.62318 559.680932 1065.90585 554.319025 1069.31402 557.212753 1088.91101 560.532028 1097.51664 568.106785 1106.37789 557.89363 1110.38249 543.93565 1109.10443 527.424382 1096.23858 509.125811 1093.08602 506.572522 1094.6197 508.359824 1099.22073 507.253399 1101.94727 512.530196 1109.87127 504.019233 1108.16718 503.849014 1109.87127 501.551054 1109.44525 502.061712 1117.28404 502.061712 1117.28404 504.615001 1120.3514 504.615001 1120.3514 508.700263 1129.12744 505.210768 1131.08714 505.806536 1133.89888 502.317041 1139.01114 504.70011 1139.01114 504.019233 1140.204 506.742742 1142.2489 512.104648 1155.02955 511.934429 1163.63519 505.295878 1164.57243 501.465944 1169.59949 502.912808 1176.07501 507.08318 1182.38013 503.168137 1187.06637 499.253094 1184.68065 488.188842 1188.77045 476.358603 1188.00362 476.358603 1188.00362 473.124437 1185.27708 462.230405 1183.91381 453.123674 1178.20512 449.123521 1183.48779 437.88905 1182.63574 432.356924 1183.99901 432.356924 1187.23678 429.633416 1187.15157 426.909908 1172.49643 425.377935 1169.59949 420.696905 1169.17346 417.973397 1166.53213 417.037191 1153.49587 405.71761 1136.96624 404.355856 1131.42796 397.036427 1120.60701 394.738467 1111.66056 386.738162 1108.4228 379.844282 1110.21209 367.588495 1107.05953 362.481917 1100.584 365.290535 1094.36409 362.396808 1085.50284 353.119858 1077.83445 357.20512 1072.04056 351.587885 1063.94615 347.757951 1061.90125 345.545101 1064.62778 337.715015 1060.28236 340.012975 1053.55122 337.715015 1048.60937 340.864071 1042.21905 339.076769 1033.10219 336.43837 1028.58636 332.182889 1022.79247 320.012212 1017.33939 310.479933 1021.68481 302.820066 1022.45165 298.053927 1019.72511 296.266625 1014.18684 299.245462 1010.35264 306.905328 1006.85926 310.820372 1000.55415 314.820524 997.6572 334.055301 995.186275 335.331945 988.966361 330.991354 981.809199 333.799972 970.647436 334.651068 966.302016 333.289314 957.014747 339.587427 949.857585 343.842908 946.279005 345.374882 935.287649 353.290077 923.273842 346.055759 923.359047 341.544948 928.386101 341.20451 932.13509 337.119247 933.92438 329.970038 937.417757 323.927255 938.695821 322.225062 936.736122 325.884776 932.305499 325.459228 928.471305 328.352955 920.717713 331.161573 917.139132 338.566111 912.112078 338.481002 909.215132 341.20451 901.035519 349.119705 891.407433 354.822051 885.698744 361.120163 876.837496 365.035206 870.958399 376.950555 861.67113 375.163252 853.576721 374.822814 844.204248 372.099306 838.325151 371.248209 833.894527 370.567332 830.912376 374.822814 815.916419 370.482223 812.593451 369.886455 809.185279 374.227046 804.669451 374.482375 800.664848 367.673605 790.184719 367.248057 786.265321 364.18411 786.606138 358.822203 793.848504 336.097932 798.875558 329.6296 801.772504 325.289009 806.288332 316.097169 797.427085 315.331182 787.03216 315.586511 775.018353 316.863155 768.457621 317.203594 761.470868 314.394976 741.533061 310.479933 738.210093 300.436997 740.084588 295.926186 749.457061 301.202983 760.278008 299.075242 768.202008 302.479628 790.781149 297.713488 792.400031 295.415528 798.619945 289.713183 803.987816 285.372592 804.413838 274.818998 818.983774 268.946433 824.266441 264.435623 827.078183 259.329045 824.692462 244.519969 824.948075 239.072953 828.952677 236.604773 828.441452 230.817319 816.512849 229.030016 802.113322 223.242561 792.485235 224.263877 777.74489 230.47688 763.856589 224.178767 755.250954 225.029864 746.730524 221.540369 737.017233 217.965764 730.882523 215.667804 727.559555 208.348376 723.810566 210.476117 715.119727 212.688967 712.734006 209.284582 704.469189 188.517832 695.18192 175.921607 685.29822 161.538079 678.055854 153.537774 667.916542 153.197335 664.763983 155.665515 659.140499 162.048737 658.032843 167.495753 654.113445 166.985096 649.768025 163.240272 647.552713 156.942159 648.489961 152.09091 645.337401 146.643894 636.646562 133.281682 630.341444 131.834818 622.247035 132.515695 616.964368 129.707077 610.062819 125.026048 610.403637 118.047058 604.694948 108.42967 604.013314 106.812587 593.192367 97.7909657 586.71684 91.4928531 587.824496 86.3011656 586.290819 85.7905078 576.407119 79.6626144 568.568323 75.832681 566.608624 71.8325284 569.761183 63.7471134 567.11985 60.5129475 560.303506 57.8745489 558.002989 58.1298778 552.890731 44.0867887 551.612667 44.1718984 544.199892 39.4908687 535.168236 40.4270746 530.055978 31.0650152 528.437096 21.8731751 521.365139 16.3410491 519.575848 17.4474743 512.418687 24.1711351 505.091116 21.3625173 503.301826 16.6814876 503.98346 14.7239661 502.023761 10.4684846 493.67374 12.8515542 487.027804 0.0851096308 475.440018 4.17037191 463.085394 6.97898972 460.529265 19.5752151 458.484362 30.3841382 460.103244 34.7247293 462.659373 45.1932139 465.130298 52.3424229 467.94204 53.7892866 459.847631 46.2145295 445.788921 52.7679711 443.147587 53.3637385 438.120533 56.8532333 427.896017 76.7688869 403.697994 77.9604218 399.693392"></polygon>
                    </g>
                </g>
            </g>
            <g id="geolocation" transform="translate(10.000000, 541.000000)">
                <g id="Oval-1">
                    <use fill="black" fill-opacity="1" filter="url(#filter-2)" xlink:href="#path-1"></use>
                    <use fill="#00A899" fill-rule="evenodd" xlink:href="#path-1"></use>
                </g>
                <text id="near_me---material" font-family="material" font-size="20.8199997" font-weight="normal" fill="#FFFFFF">
                    <tspan x="15.0909091" y="32.0909091"></tspan>
                </text>
            </g>
            <g id="searchbar" transform="translate(13.000000, 14.000000)">
                <g id="Rectangle-2">
                    <use fill="black" fill-opacity="1" filter="url(#filter-4)" xlink:href="#path-3"></use>
                    <use fill="#FFFFFF" fill-rule="evenodd" xlink:href="#path-3"></use>
                    <rect stroke="#FFFFFF" stroke-width="1" x="0.5" y="0.5" width="347" height="56" rx="1"></rect>
                </g>
                <text id="search---material" font-family="material" font-size="20" font-weight="normal" fill="#000000">
                    <tspan x="64" y="37"></tspan>
                </text>
                <path d="M47.5,13.5 L47.5,45.0753059" id="divider" stroke="#E1E1E1" stroke-linecap="square"></path>
                <text id="cog---FontAwesome" font-family="FontAwesome" font-size="22" font-weight="normal" fill="#989898">
                    <tspan x="16" y="37"></tspan>
                </text>
            </g>
            <g id="navbar" transform="translate(0.000000, 604.000000)">
                <g id="Rectangle-11">
                    <use fill="black" fill-opacity="1" filter="url(#filter-6)" xlink:href="#path-5"></use>
                    <use fill="#00AA99" fill-rule="evenodd" xlink:href="#path-5"></use>
                </g>
                <text id="" font-family="material" font-size="30" font-weight="normal" fill="#FFFFFF">
                    <tspan x="328" y="39"></tspan>
                </text>
                <text id="Today,-2017/05/08" font-family="Roboto-Regular, Roboto" font-size="14" font-weight="normal" fill="#FFFFFF">
                    <tspan x="61" y="36">Today, 2017/05/08</tspan>
                </text>
                <g id="time" transform="translate(13.000000, 6.000000)" font-size="24" font-family="material" fill="#FFFFFF" font-weight="normal">
                    <text id="">
                        <tspan x="11" y="34"></tspan>
                    </text>
                </g>
                <text id="keyboard_arrow_down---material" font-family="material" font-size="20" font-weight="normal" fill="#FFFFFF">
                    <tspan x="188.1" y="39"></tspan>
                </text>
            </g>
            <g id="snackbar" transform="translate(69.000000, 614.000000)">
                <rect id="Rectangle" fill="#000000" x="0" y="0" width="254" height="53"></rect>
                <text id="Geolocation-successf" font-family="Roboto-Bold, Roboto" font-size="14" font-weight="bold" fill="#E6E6E6">
                    <tspan x="15" y="22">Geolocation successful</tspan>
                </text>
                <text id="OK" font-family="Roboto-Bold, Roboto" font-size="14" font-weight="bold" fill="#00AA99">
                    <tspan x="212" y="32">OK</tspan>
                </text>
                <text id="Zoomlevel-now-14" font-family="Roboto-Regular, Roboto" font-size="12" font-weight="normal" fill="#E6E6E6">
                    <tspan x="15" y="41">Zoomlevel now 14</tspan>
                </text>
            </g>
            <g id="geolocation-marker" transform="translate(120.000000, 295.000000)">
                <circle id="Oval" stroke="#C1D7F5" fill-opacity="0.181074502" fill="#3B79F6" cx="61" cy="61" r="61"></circle>
                <circle id="Oval" fill-opacity="0.181074502" fill="#3B79F6" cx="60.5" cy="60.5" r="29.5"></circle>
                <circle id="Oval" fill="#FFFFFF" cx="60" cy="60" r="21"></circle>
                <circle id="Oval" fill="#3B79F6" cx="60" cy="60" r="19"></circle>
            </g>
            <g id="btn-show-results-on-map" transform="translate(15.000000, 86.000000)">
                <rect id="Rectangle-13" fill="#384555" x="0" y="0" width="344" height="47"></rect>
                <text id="Click-here-to-view-a" font-family="Roboto-Regular, Roboto" font-size="15" font-weight="normal" fill="#FFFFFF">
                    <tspan x="44" y="29">Click here to view as catalog</tspan>
                </text>
                <text id="apps---material" font-family="material" font-size="20" font-weight="normal" fill="#FFFFFF">
                    <tspan x="11.1" y="30"></tspan>
                </text>
            </g>
        </g>
    </g>
</svg>