<?xml version="1.0" encoding="UTF-8"?>
<svg width="375px" height="667px" viewBox="0 0 375 667" version="1.1" xmlns="http://www.w3.org/2000/svg" xmlns:xlink="http://www.w3.org/1999/xlink">
    <!-- Generator: Sketch 43.2 (39069) - http://www.bohemiancoding.com/sketch -->
    <title>Omnibox: image fullscreen@2x</title>
    <desc>Created with Sketch.</desc>
    <defs>
        <circle id="path-1" cx="10.5" cy="10.5" r="10.5"></circle>
        <filter x="-40.5%" y="-31.0%" width="181.0%" height="181.0%" filterUnits="objectBoundingBox" id="filter-2">
            <feMorphology radius="1.5" operator="dilate" in="SourceAlpha" result="shadowSpreadOuter1"></feMorphology>
            <feOffset dx="0" dy="2" in="shadowSpreadOuter1" result="shadowOffsetOuter1"></feOffset>
            <feGaussianBlur stdDeviation="2" in="shadowOffsetOuter1" result="shadowBlurOuter1"></feGaussianBlur>
            <feComposite in="shadowBlurOuter1" in2="SourceAlpha" operator="out" result="shadowBlurOuter1"></feComposite>
            <feColorMatrix values="0 0 0 0 0   0 0 0 0 0   0 0 0 0 0  0 0 0 0.5 0" type="matrix" in="shadowBlurOuter1"></feColorMatrix>
        </filter>
        <filter x="-2.0%" y="-1.0%" width="104.2%" height="103.2%" filterUnits="objectBoundingBox" id="filter-3">
            <feOffset dx="0" dy="2" in="SourceAlpha" result="shadowOffsetOuter1"></feOffset>
            <feGaussianBlur stdDeviation="2" in="shadowOffsetOuter1" result="shadowBlurOuter1"></feGaussianBlur>
            <feColorMatrix values="0 0 0 0 0   0 0 0 0 0   0 0 0 0 0  0 0 0 0.5 0" type="matrix" in="shadowBlurOuter1" result="shadowMatrixOuter1"></feColorMatrix>
            <feMerge>
                <feMergeNode in="shadowMatrixOuter1"></feMergeNode>
                <feMergeNode in="SourceGraphic"></feMergeNode>
            </feMerge>
        </filter>
        <rect id="path-4" x="6" y="0" width="395" height="679"></rect>
        <filter x="-2.3%" y="-0.7%" width="103.5%" height="102.1%" filterUnits="objectBoundingBox" id="filter-5">
            <feOffset dx="-2" dy="2" in="SourceAlpha" result="shadowOffsetOuter1"></feOffset>
            <feGaussianBlur stdDeviation="2" in="shadowOffsetOuter1" result="shadowBlurOuter1"></feGaussianBlur>
            <feColorMatrix values="0 0 0 0 0   0 0 0 0 0   0 0 0 0 0  0 0 0 0.539175725 0" type="matrix" in="shadowBlurOuter1"></feColorMatrix>
        </filter>
    </defs>
    <g id="Page-1" stroke="none" stroke-width="1" fill="none" fill-rule="evenodd">
        <g id="Omnibox:-image-fullscreen">
            <g id="map" transform="translate(-2150.000000, -3213.000000)">
                <rect id="Rectangle-1" fill="#A3CCFF" x="0" y="0" width="3521" height="6452"></rect>
                <g id="vietnamHigh" transform="translate(272.593548, 136.309859)" stroke="#FCD395" stroke-width="0.5" fill="#F3F1ED">
                    <g id="Group" transform="translate(0.000000, 0.000000)">
                        <path d="M2348.53711,2894.88063 L2349.38852,2898.43037 L2359.0378,2901.76712 L2358.54115,2911.70638 L2359.67636,2914.33319 L2357.33499,2914.47518 L2355.63217,2911.35141 L2349.81422,2908.36963 L2347.33095,2901.27016 L2344.49292,2900.20524 L2342.3644,2901.69613 L2341.08729,2898.92733 L2338.95877,2898.21739 L2345.98289,2893.03477 L2348.53711,2894.88063 L2348.53711,2894.88063 Z M1963.77179,2875.28609 L1967.03552,2871.59437 L1972.49872,2869.18055 L1977.25241,2872.73028 L1980.30329,2878.55185 L1993.64201,2880.68169 L1998.1119,2876.564 L1998.32475,2873.22724 L1995.77053,2867.83165 L2002.51084,2863.78495 L2011.16682,2863.35898 L2020.17755,2860.51919 L2022.37702,2865.91479 L2020.46135,2872.30431 L2025.35695,2873.15625 L2031.81346,2877.41593 L2036.4962,2877.8419 L2039.47612,2880.32672 L2041.67559,2885.22535 L2048.69971,2886.92923 L2052.81484,2886.29027 L2058.84565,2881.53363 L2060.33561,2877.62892 L2059.83896,2873.29824 L2075.51905,2864.92086 L2077.78947,2862.01008 L2077.29282,2859.0993 L2080.13084,2860.94516 L2083.46552,2859.73825 L2090.41868,2864.49489 L2092.76005,2864.3529 L2093.89527,2862.43605 L2093.89527,2862.43605 L2098.79086,2863.99793 L2101.77079,2861.7971 L2110.07201,2861.15814 L2114.4,2864.77887 L2121.06936,2866.62474 L2121.56601,2869.32254 L2124.68784,2871.87835 L2138.38132,2862.86202 L2146.39874,2860.23521 L2145.33448,2870.88442 L2149.23676,2874.15018 L2149.59152,2877.20295 L2154.77091,2880.32672 L2153.70665,2889.34305 L2144.83782,2897.08147 L2144.55402,2900.7732 L2142.1417,2904.32293 L2155.69327,2915.82408 L2162.85929,2914.83015 L2168.25154,2911.4934 L2175.98515,2909.64754 L2183.15117,2910.0735 L2185.98919,2912.7713 L2190.74289,2913.26827 L2201.31453,2904.60691 L2211.81523,2911.28041 L2215.07896,2910.1445 L2217.63318,2902.61906 L2221.89022,2903.25801 L2223.16733,2906.94974 L2226.85676,2907.73068 L2228.84338,2898.0044 L2231.2557,2899.49529 L2233.59707,2898.21739 L2236.93175,2899.4243 L2235.65464,2901.48314 L2238.63457,2906.66576 L2240.83404,2904.60691 L2243.10446,2905.03288 L2243.88492,2901.41215 L2246.01344,2901.05717 L2246.08439,2899.28231 L2252.11519,2894.52566 L2255.80462,2894.52566 L2257.50744,2897.93341 L2260.13261,2897.43644 L2260.70022,2900.13424 L2267.79528,2897.36545 L2267.79528,2897.36545 L2272.26517,2904.39393 L2282.19826,2914.47518 L2305.11532,2928.60312 L2304.83152,2932.29485 L2303.05775,2931.44291 L2298.65881,2934.63768 L2300.21972,2937.61945 L2309.30141,2933.85673 L2312.49418,2951.60541 L2315.89982,2961.11871 L2343.99627,3009.6081 L2373.51173,3052.6309 L2388.76612,3069.52764 L2400.82773,3076.98209 L2397.2802,3077.26607 L2381.3163,3066.0489 L2378.83303,3065.90691 L2375.0017,3063.4221 L2374.15029,3064.41602 L2378.83303,3068.39173 L2373.72459,3072.50942 L2377.83972,3083.22962 L2382.02581,3086.56637 L2386.2119,3082.02271 L2388.69517,3084.43653 L2393.09411,3085.07548 L2393.30696,3089.97412 L2391.10749,3090.40009 L2391.24939,3093.23988 L2398.06066,3098.70647 L2401.18248,3097.99652 L2405.58142,3100.76532 L2408.4904,3097.28658 L2410.97367,3096.50563 L2410.68987,3090.04511 L2407.70994,3090.2581 L2413.8117,3085.71444 L2413.59885,3081.95172 L2415.58546,3081.09978 L2416.86257,3082.59067 L2415.94022,3084.72051 L2418.56539,3087.06334 L2420.1263,3091.74899 L2418.28159,3098.20951 L2433.53598,3114.3963 L2433.53598,3114.3963 L2429.27894,3122.41871 L2425.87331,3124.19357 L2410.76082,3125.75546 L2408.84515,3127.31734 L2405.29762,3125.25849 L2404.16241,3126.82038 L2397.8478,3125.96844 L2393.37791,3129.94415 L2383.30292,3131.932 L2382.87722,3134.5588 L2377.62687,3135.9077 L2375.49835,3134.84278 L2367.55188,3138.88948 L2361.94678,3138.46351 L2355.06457,3144.14309 L2347.26,3141.80026 L2339.95208,3148.89974 L2323.06583,3147.12487 L2320.15685,3142.08424 L2315.04841,3149.3257 L2310.15281,3148.33178 L2310.15281,3151.59754 L2306.25053,3152.59146 L2301.78064,3150.53261 L2295.74983,3153.94036 L2279.07643,3151.45555 L2272.12327,3157.98706 L2274.25179,3163.87962 L2273.04563,3167.71334 L2265.09916,3173.32192 L2268.29194,3177.29762 L2267.08578,3179.56945 L2270.49141,3178.9305 L2270.49141,3178.9305 L2274.46464,3179.92443 L2274.46464,3179.92443 L2273.54228,3186.31395 L2267.93718,3189.15374 L2269.9238,3191.85154 L2273.04563,3192.70348 L2272.05232,3196.60819 L2274.25179,3199.66096 L2270.13665,3202.00379 L2265.87961,3207.54137 L2265.17011,3210.94912 L2263.32539,3211.44608 L2264.3187,3212.582 L2262.75779,3213.78891 L2263.04159,3215.91875 L2256.58508,3221.66932 L2256.23033,3231.46659 L2248.28386,3236.08125 L2250.69618,3241.26386 L2248.99336,3247.86637 L2251.12188,3250.28019 L2249.56097,3253.97192 L2249.56097,3253.97192 L2239.84073,3253.61695 L2234.94514,3249.00229 L2233.10042,3250.42218 L2232.17806,3247.29842 L2226.64391,3242.89674 L2221.25166,3242.54177 L2215.36276,3248.43433 L2217.77508,3255.24982 L2216.42702,3257.37967 L2216.78177,3265.11809 L2218.76839,3266.75097 L2221.53547,3275.48332 L2216.56892,3280.02698 L2205.42967,3281.1629 L2200.88883,3284.28666 L2193.86472,3284.28666 L2193.50996,3280.02698 L2189.60768,3277.82614 L2184.71208,3277.75515 L2178.68128,3268.73882 L2167.75488,3265.11809 L2164.5621,3266.89296 L2162.57548,3265.11809 L2157.67989,3266.39599 L2155.05472,3262.2783 L2151.01053,3261.28437 L2143.48976,3245.52355 L2148.24345,3240.97989 L2152.50049,3239.63099 L2153.4938,3235.65528 L2152.35859,3233.45445 L2152.35859,3233.45445 L2155.33852,3232.81549 L2155.33852,3232.81549 L2158.88605,3223.94115 L2161.58217,3221.03037 L2160.73077,3217.40964 L2162.71739,3212.65299 L2161.22742,3206.54745 L2156.97038,3205.8375 L2154.55806,3202.64274 L2143.06406,3199.44798 L2142.49645,3195.18829 L2138.16846,3193.48442 L2135.89804,3187.37887 L2129.79629,3185.39102 L2129.29963,3186.45594 L2129.29963,3186.45594 L2124.90069,3187.73385 L2124.90069,3187.73385 L2121.28221,3192.63248 L2118.01848,3191.28358 L2113.76144,3185.95898 L2099.50037,3186.9529 L2094.53382,3183.82914 L2090.91534,3185.46202 L2083.11077,3182.90621 L2079.77609,3183.26118 L2076.86711,3181.34432 L2076.93806,3178.71752 L2071.12011,3176.09071 L2066.57927,3178.36254 L2066.57927,3178.36254 L2063.81219,3178.50453 L2063.81219,3178.50453 L2062.96079,3176.72967 L2065.16026,3175.94872 L2062.67698,3166.64842 L2060.47751,3164.09261 L2061.82558,3163.16967 L2060.83227,3150.81659 L2062.39318,3149.68068 L2056.29143,3149.04173 L2053.52435,3150.6746 L2042.95271,3138.81849 L2042.2432,3135.41074 L2039.33422,3134.70079 L2037.0638,3131.29305 L2037.63141,3128.52425 L2037.63141,3128.52425 L2037.48951,3127.17535 L2037.48951,3127.17535 L2035.85764,3124.19357 L2036.6381,3119.93389 L2034.15483,3115.10625 L2029.47208,3111.55651 L2027.76927,3108.00678 L2022.94463,3108.43275 L2022.94463,3108.43275 L2015.0691,3106.08992 L2009.60591,3109.35568 L2003.22035,3114.96426 L1999.17616,3116.24217 L1993.64201,3112.05348 L1984.77318,3109.28468 L1983.49607,3107.15484 L1986.9017,3097.99652 L1982.64466,3091.11004 L1982.14801,3086.49538 L1974.41439,3084.01056 L1970.654,3080.74481 L1966.39697,3077.33706 L1960.22426,3074.78125 L1953.1292,3074.63926 L1951.28448,3076.20114 L1951.42638,3079.89287 L1946.53079,3079.82187 L1933.68872,3078.54397 L1931.20545,3064.62901 L1927.44507,3058.09749 L1927.37411,3049.50713 L1922.90422,3049.79111 L1919.28574,3047.2353 L1921.34331,3042.76263 L1919.14384,3036.65709 L1919.49859,3032.68138 L1916.44772,3029.62861 L1909.63645,3027.99573 L1900.05812,3028.91866 L1895.16252,3025.43992 L1894.02731,3021.18024 L1890.69263,3017.41752 L1890.12503,3015.71364 L1894.52397,3006.76831 L1894.94967,3001.5147 L1894.38207,2998.39093 L1891.40214,2995.97711 L1886.8613,2991.78842 L1884.66183,2989.65858 L1886.64845,2985.46989 L1884.80373,2982.91408 L1871.39406,2985.11492 L1870.7555,2978.08644 L1873.59353,2970.49001 L1877.35391,2967.8632 L1876.92821,2960.47975 L1870.54265,2951.8184 L1874.51589,2948.05568 L1878.98578,2945.0029 L1884.23613,2947.41673 L1887.4289,2943.37003 L1892.1826,2941.59516 L1896.51059,2939.7493 L1902.82519,2935.7026 L1908.35934,2935.91558 L1909.99121,2931.08794 L1914.24825,2928.60312 L1920.91761,2926.04732 L1929.50263,2927.11224 L1933.90157,2929.52606 L1939.36477,2927.5382 L1943.69276,2920.29674 L1947.3822,2913.76523 L1950.64592,2911.91937 L1952.91634,2900.63121 L1957.67004,2892.6798 L1959.4438,2889.41404 L1960.64996,2883.73446 L1963.77179,2875.28609 L1963.77179,2875.28609 Z" id="VN-27"></path>
                        <polygon id="VN-28" points="2022.02227 3108.00678 2026.84691 3107.6518 2028.54973 3111.20154 2033.30342 3114.75128 2035.71574 3119.57892 2034.93528 3123.8386 2036.6381 3126.89137 2036.6381 3126.89137 2036.78 3128.24027 2036.78 3128.24027 2036.2124 3131.00907 2038.48282 3134.34582 2041.39179 3135.12676 2042.1013 3138.53451 2052.67294 3150.39062 2055.51097 3148.75775 2061.54177 3149.3967 2059.98086 3150.53261 2061.04512 3162.8857 2059.69706 3163.73763 2061.96748 3166.36444 2064.3798 3175.59375 2062.18033 3176.37469 2063.03174 3178.14956 2063.03174 3178.14956 2065.86976 3178.00757 2065.86976 3178.00757 2070.33965 3175.73574 2076.15761 3178.36254 2076.08665 3180.98935 2078.99563 3182.90621 2082.40126 3182.55123 2090.13488 3185.10704 2093.75336 3183.47416 2098.71991 3186.59793 2112.98099 3185.675 2117.23803 3190.9996 2120.50175 3192.3485 2124.04929 3187.44987 2124.04929 3187.44987 2128.51918 3186.24296 2128.51918 3186.24296 2129.01583 3185.10704 2135.11759 3187.09489 2137.38801 3193.20044 2141.716 3194.90431 2142.2836 3199.164 2153.84856 3202.35876 2156.26088 3205.62452 2160.51792 3206.33446 2162.00788 3212.44001 2160.02126 3217.19665 2160.87267 3220.81739 2158.10559 3223.72817 2154.55806 3232.60251 2154.55806 3232.60251 2151.57813 3233.24146 2151.57813 3233.24146 2152.71335 3235.4423 2151.72004 3239.418 2147.463 3240.8379 2142.7093 3245.38156 2150.23007 3261.14239 2154.34521 3262.13631 2156.89943 3266.25401 2161.79503 3264.9761 2163.78164 3266.75097 2166.97442 3264.9761 2177.97177 3268.59683 2183.93163 3277.68415 2188.89817 3277.75515 2192.72951 3279.95599 2193.08426 3284.14467 2200.10837 3284.21567 2204.64921 3281.02091 2215.78846 3279.95599 2220.75501 3275.41232 2217.98793 3266.67997 2215.93036 3265.0471 2215.64656 3257.30867 2216.99462 3255.17883 2214.5823 3248.36334 2220.47121 3242.47077 2225.86345 3242.82575 2231.3976 3247.22742 2232.31996 3250.35119 2234.16468 3248.93129 2239.06027 3253.54595 2248.85146 3253.90092 2248.85146 3253.90092 2252.89565 3255.74679 2254.38561 3263.48521 2257.72029 3266.46699 2259.77786 3272.43055 2261.26782 3272.14657 2263.39634 3274.63138 2263.39634 3274.63138 2265.38296 3275.6963 2265.38296 3275.6963 2265.24106 3279.03305 2275.88365 3286.13253 2277.37362 3289.1143 2276.59316 3290.5342 2278.15408 3293.161 2279.43119 3292.87702 2278.29598 3294.15493 2279.14738 3298.69859 2285.53294 3300.61545 2289.50618 3304.59115 2290.42854 3311.33565 2294.25987 3310.41272 2295.67888 3311.61963 2297.9493 3320.139 2297.9493 3320.139 2299.65212 3324.39868 2306.10863 3331.56915 2306.10863 3331.56915 2309.72711 3333.84098 2309.72711 3333.84098 2318.24119 3334.97689 2318.24119 3334.97689 2321.29206 3339.52055 2327.39382 3340.94045 2329.30949 3345.34212 2342.86106 3341.43741 2345.77003 3345.98107 2345.06053 3347.25898 2345.06053 3347.25898 2346.19574 3349.53081 2351.16228 3351.58966 2353.5746 3357.7662 2353.5746 3357.7662 2355.20647 3358.97311 2355.70312 3362.38085 2352.93605 3364.72368 2351.94274 3371.53917 2344.70577 3378.56765 2344.70577 3378.56765 2343.85437 3380.48451 2345.91194 3381.12346 2345.91194 3381.12346 2349.81422 3385.66712 2347.5438 3392.19864 2343.42866 3395.74837 2341.9387 3400.36303 2339.38448 3400.789 2338.03641 3406.75255 2342.3644 3409.45035 2346.19574 3407.95946 2347.61475 3409.73433 2354.99362 3408.59842 2357.61879 3415.76888 2362.44343 3421.51945 2362.44343 3421.51945 2356.83833 3425.63715 2355.49027 3434.2985 2342.71916 3438.84217 2323.27868 3434.51149 2314.40985 3428.61893 2309.30141 3418.2537 2306.17958 3416.33684 2305.47007 3417.54375 2299.08451 3417.25977 2296.10459 3423.36532 2292.4861 3425.06919 2292.27325 3428.47694 2293.05371 3431.24573 2298.51691 3436.92531 2297.0979 3443.38583 2302.13539 3445.51567 2301.42588 3451.05326 2299.01356 3451.62121 2299.01356 3451.62121 2296.95599 3454.24802 2296.95599 3454.24802 2281.06305 3471.21576 2279.71499 3477.25031 2274.03894 3484.63376 2270.63331 3485.98266 2268.15004 3490.8103 2269.99475 3496.56087 2262.11923 3498.47773 2253.6761 3496.77386 2251.26378 3494.64401 2246.43914 3497.27082 2242.11115 3496.63187 2237.85411 3498.40673 2235.65464 3502.8794 2233.88088 3502.09846 2233.95183 3503.58935 2231.68141 3503.23437 2230.61715 3505.22223 2223.45113 3505.43521 2219.83265 3507.49406 2218.27174 3510.9728 2216.49797 3511.32777 2217.63318 3512.60568 2215.07896 3513.24463 2213.09234 3510.9728 2215.78846 3508.41699 2212.31188 3508.48798 2210.46717 3510.26285 2203.01735 3507.21008 2200.60503 3511.04379 2202.09499 3513.88358 2199.18601 3514.80651 2199.04411 3516.93636 2189.67863 3518.78222 2189.53673 3520.13112 2193.08426 3522.18996 2193.15521 3525.45572 2187.62106 3528.93446 2182.79642 3544.19833 2175.27565 3539.79665 2169.4577 3547.60607 2169.7415 3549.38094 2166.90347 3549.8779 2165.98111 3553.85361 2163.28499 3553.9956 2161.15647 3551.93675 2153.99046 3552.07874 2145.90208 3558.32628 2141.57409 3552.29173 2139.51653 3554.06659 2135.61424 3553.64062 2130.71865 3546.18618 2123.48168 3539.93864 2115.03856 3537.73781 2113.61954 3540.43561 2105.24737 3540.36461 2100.42272 3543.2044 2100.77748 3555.98345 2097.22995 3556.6224 2093.18576 3563.86386 2089.28347 3564.28983 2080.69845 3559.3912 2078.56993 3563.08292 2076.86711 3561.94701 2073.17768 3564.28983 2072.11342 3568.26554 2059.41325 3563.4379 2049.76397 3563.22491 2045.36503 3560.88209 2047.4226 3558.75224 2047.8483 3551.93675 2045.79073 3548.81298 2046.07453 3540.71959 2042.1013 3536.4599 2043.87506 3524.4618 2049.69302 3520.77007 2057.07188 3521.33803 2056.71713 3517.22033 2060.33561 3515.94243 2064.59265 3506.14516 2062.10938 3501.45951 2058.13614 3501.45951 2055.58192 3489.53239 2048.48686 3485.05973 2052.24724 3480.58706 2049.05446 3477.46329 2050.97013 3472.91963 2048.274 3468.51796 2042.8108 3464.68424 2038.76662 3468.02099 2032.59391 3469.01492 2029.54304 3471.85471 2023.29938 3471.14476 2020.60325 3476.32738 2016.06241 3478.17324 2013.15344 3476.11439 2010.17351 3477.81827 2006.62598 3477.10832 2001.65943 3473.41659 1998.75046 3474.05555 1991.37159 3470.5768 1989.38497 3471.71272 1986.05029 3470.29283 1978.10382 3471.28675 1978.10382 3471.28675 1976.96861 3469.2279 1978.81333 3461.84445 1981.7223 3457.01681 1979.23903 3452.97011 1984.41843 3449.49137 1986.40505 3440.12007 1988.39166 3438.77117 1988.24976 3435.22143 1986.26315 3433.44657 1982.78656 3424.07526 1985.76649 3419.03464 1988.95927 3418.96364 1992.7906 3415.76888 1992.7906 3412.21915 1998.53761 3409.66334 1994.42247 3395.96136 1994.84817 3389.07487 1997.47335 3385.80911 1992.0811 3383.11131 1995.06102 3377.00577 1992.15205 3371.89415 1989.10117 3370.61624 1984.84413 3371.46818 1984.06368 3369.19635 1991.37159 3361.38693 1985.69554 3351.0217 1981.36755 3347.75594 1978.03287 3347.04599 1979.59379 3343.28327 1984.77318 3339.73354 1984.27653 3336.46778 1991.44254 3331.14318 1998.75046 3326.8125 2001.65943 3321.84287 2009.0383 3317.3702 2008.96735 3314.88539 2007.19358 3306.65 2003.0075 3306.86298 1996.26719 3303.17126 1990.44923 3300.75744 1986.97265 3295.29085 1978.17477 3292.73504 1975.8334 3287.48143 1972.42777 3287.12645 1969.87355 3284.35766 1968.17073 3281.44687 1969.51879 3276.54824 1963.77179 3271.43662 1967.24837 3270.51369 1967.95788 3268.80982 1965.26176 3266.89296 1964.12655 3263.05924 1966.75172 3257.66364 1976.40101 3257.52165 1981.79326 3254.1849 1982.85751 3250.77716 1990.87494 3246.94344 2007.05168 3254.96585 2008.6126 3254.53988 2010.74112 3246.23349 2018.33283 3248.36334 2020.88706 3246.37548 2018.47474 3240.55392 2016.91382 3240.19894 2012.16013 3232.31853 2021.31276 3225.36105 2019.75185 3220.24943 2015.77861 3215.2088 2021.17086 3214.35687 2022.80272 3208.81928 2019.11329 3206.97342 2013.93389 3195.96923 2009.1802 3191.70955 2010.95397 3185.53301 2013.93389 3188.23081 2020.31945 3185.10704 2020.3904 3179.78244 2021.80942 3176.65867 2018.61664 3156.56717 2021.09991 3153.4434 2021.88037 3147.55084 2025.35695 3146.6989 2025.8536 3144.28508 2022.51892 3139.24445 2019.32614 3140.09639 2016.77192 3138.46351 2016.20432 3131.71901 2016.34622 3126.03944 2011.59252 3120.14687 2017.05572 3115.8162"></polygon>
                        <polygon id="VN-29" points="2459.22011 3108.78772 2461.41958 3109.0717 2465.03806 3106.08992 2466.38612 3107.15484 2464.3995 3109.85264 2466.45707 3114.60929 2466.45707 3122.41871 2473.41023 3132.07399 2476.74491 3133.99085 2480.29245 3131.29305 2482.70477 3132.42896 2479.51199 3135.19776 2479.51199 3137.18561 2480.86005 3139.52843 2486.1104 3140.59335 2486.74895 3142.29723 2481.42766 3151.66853 2489.16128 3164.30559 2496.39824 3171.61805 2500.22958 3173.03794 2502.5 3171.26307 2506.04753 3171.47606 2508.03415 3173.32192 2508.03415 3179.56945 2503.77711 3185.60401 2498.31391 3184.96505 2501.22288 3188.3728 2499.09437 3189.86369 2498.17201 3187.87584 2495.61778 3187.66285 2491.14789 3191.78055 2490.72219 3203.1397 2492.07025 3209.31624 2489.79983 3209.03226 2489.37413 3212.79498 2490.79314 3213.22095 2488.73557 3218.40357 2488.59367 3219.96545 2490.15459 3224.15414 2489.16128 3228.48482 2492.1412 3229.62073 2494.12782 3231.3956 2493.84402 3235.79727 2498.31391 3255.17883 2512.64594 3296.00079 2531.44786 3335.47386 2545.21228 3359.54107 2558.05435 3378.07069 2558.33815 3381.05246 2560.11192 3388.6489 2560.25382 3392.34062 2557.91245 3393.47654 2553.65541 3399.01413 2557.20294 3411.01224 2555.71298 3411.65119 2556.63533 3417.75673 2559.61526 3426.2761 2559.61526 3426.2761 2551.73974 3421.09349 2549.68217 3416.62082 2547.41175 3416.33684 2545.21228 3408.31444 2546.27654 3406.1846 2542.30331 3399.51109 2539.53623 3400.36303 2535.8468 3392.97958 2532.65402 3391.13371 2529.74504 3391.84366 2527.33272 3389.85581 2521.30192 3390.99173 2512.36214 3383.2533 2510.02076 3384.6022 2507.25369 3381.9044 2503.56426 3381.05246 2502.99665 3378.85163 2494.34067 3384.88618 2489.72888 3385.31215 2488.66462 3386.80304 2481.0729 3383.11131 2477.59632 3382.96932 2475.4678 3383.2533 2474.9002 3386.37707 2472.98453 3386.59005 2470.1465 3382.25937 2465.74757 3388.86188 2460.63912 3391.3467 2449.07417 3391.41769 2444.32047 3388.50691 2440.70199 3392.97958 2443.32716 3407.32051 2441.48245 3410.94124 2442.2629 3418.1827 2440.27629 3420.38354 2436.5159 3421.16448 2433.96168 3419.95757 2432.32981 3422.44239 2422.39672 3416.47883 2420.83581 3414.84595 2421.61627 3413.00009 2419.8425 3413.00009 2417.92683 3419.6026 2414.3793 3421.80343 2411.82508 3419.31862 2408.84515 3425.70814 2396.85449 3431.38772 2398.13161 3434.2985 2397.4221 3438.13222 2393.51981 3436.78332 2392.31365 3439.33913 2392.31365 3439.33913 2388.69517 3439.83609 2386.99236 3443.8118 2384.58003 3443.17284 2380.6068 3438.20321 2380.7487 3432.38165 2372.30557 3428.61893 2372.51843 3427.34102 2367.33903 3423.50731 2363.01104 3423.72029 2362.51439 3422.2294 2362.51439 3422.2294 2357.68974 3416.47883 2355.06457 3409.30836 2347.6857 3410.44428 2346.26669 3408.7404 2342.43535 3410.23129 2338.10737 3407.53349 2339.45543 3401.64093 2342.0806 3401.14397 2343.57056 3396.52931 2347.6857 3392.97958 2349.95612 3386.37707 2346.05384 3381.9044 2346.05384 3381.9044 2344.20912 3381.40744 2344.84768 3379.34859 2344.84768 3379.34859 2352.08464 3372.32011 2353.07795 3365.50462 2355.91598 3363.1618 2355.41932 3359.75405 2353.71651 3358.61813 2353.71651 3358.61813 2351.30418 3352.44159 2347.04715 3350.9507 2345.27338 3348.03992 2345.27338 3348.03992 2345.98289 3346.76202 2343.07391 3342.21835 2329.52234 3346.12306 2327.60667 3341.6504 2321.50492 3340.3015 2318.45404 3335.75783 2318.45404 3335.75783 2310.01091 3334.62192 2310.01091 3334.62192 2306.32148 3332.35009 2306.32148 3332.35009 2299.93592 3325.25062 2298.23311 3320.91994 2298.23311 3320.91994 2295.96269 3312.40057 2294.61462 3311.26466 2290.71234 3312.18759 2289.78998 3305.44309 2285.81674 3301.46739 2279.43119 3299.55053 2278.57978 3295.00687 2279.71499 3293.72896 2278.43788 3294.01294 2276.87696 3291.38614 2277.65742 3289.96624 2276.16746 3286.98446 2265.52486 3279.814 2265.59581 3276.47724 2265.59581 3276.47724 2263.60919 3275.41232 2263.60919 3275.41232 2261.55163 3272.92751 2260.06166 3273.21149 2258.00409 3267.31893 2254.66941 3264.33715 2253.17945 3256.59872 2249.13526 3254.75286 2249.13526 3254.75286 2250.69618 3251.06114 2248.56766 3248.64732 2250.27047 3242.04481 2247.85815 3236.86219 2255.80462 3232.24754 2256.15938 3222.45026 2262.61589 3216.69969 2262.33208 3214.64085 2263.893 3213.43393 2262.89969 3212.29802 2264.81536 3211.80106 2265.52486 3208.39331 2269.7819 3202.85572 2273.89704 3200.58389 2271.69757 3197.53112 2272.69088 3193.62641 2269.56905 3192.77447 2267.58243 3190.07667 2273.18753 3187.23688 2274.10989 3180.84736 2274.10989 3180.84736 2270.13665 3179.85343 2270.13665 3179.85343 2266.73102 3180.49239 2268.00813 3178.22055 2264.88631 3174.24485 2272.83278 3168.63627 2274.03894 3164.80255 2271.91042 3158.90999 2278.86358 3152.37848 2295.53698 3154.86329 2301.56779 3151.45555 2306.03768 3153.51439 2309.93996 3152.52047 2310.01091 3149.25471 2314.90651 3150.24864 2320.01495 3143.00717 2322.92393 3148.11879 2339.81018 3149.89366 2347.1181 3142.79419 2354.92267 3145.13702 2361.80488 3139.45744 2367.40998 3139.88341 2375.35645 3135.83671 2377.55592 3136.90163 2382.80627 3135.55273 2383.23197 3132.92592 2393.30696 3130.93807 2397.77685 3126.96237 2404.09146 3127.8853 2405.22667 3126.32342 2408.84515 3128.38226 2410.76082 3126.82038 2425.87331 3125.25849 2429.27894 3123.48363 2433.53598 3115.46122 2433.53598 3115.46122 2446.94565 3120.99881 2447.868 3118.79798 2451.27363 3119.22394 2456.59493 3116.81012 2459.29106 3111.84049 2457.16254 3111.55651 2454.67927 3108.21976 2455.17592 3105.59296"></polygon>
                        <polygon id="VN-30" points="1978.10382 3471.28675 1986.05029 3470.29283 1989.38497 3471.71272 1991.37159 3470.5768 1998.75046 3474.05555 2001.65943 3473.41659 2006.62598 3477.10832 2010.17351 3477.81827 2013.15344 3476.11439 2016.06241 3478.17324 2020.60325 3476.32738 2023.29938 3471.14476 2029.54304 3471.85471 2032.59391 3469.01492 2038.76662 3468.02099 2042.8108 3464.68424 2048.274 3468.51796 2050.97013 3472.91963 2049.05446 3477.46329 2052.24724 3480.58706 2048.48686 3485.05973 2055.58192 3489.53239 2058.13614 3501.45951 2062.10938 3501.45951 2064.59265 3506.14516 2060.33561 3515.94243 2056.71713 3517.22033 2057.07188 3521.33803 2049.69302 3520.77007 2043.87506 3524.4618 2042.1013 3536.4599 2046.07453 3540.71959 2045.79073 3548.81298 2047.8483 3551.93675 2047.4226 3558.75224 2045.36503 3560.88209 2049.76397 3563.22491 2059.41325 3563.4379 2072.11342 3568.26554 2073.17768 3564.28983 2076.86711 3561.94701 2078.56993 3563.08292 2080.69845 3559.3912 2089.28347 3564.28983 2093.18576 3563.86386 2097.22995 3556.6224 2100.77748 3555.98345 2100.42272 3543.2044 2105.24737 3540.36461 2113.61954 3540.43561 2115.03856 3537.73781 2123.48168 3539.93864 2130.71865 3546.18618 2135.61424 3553.64062 2139.51653 3554.06659 2141.57409 3552.29173 2145.90208 3558.32628 2153.99046 3552.07874 2161.15647 3551.93675 2163.28499 3553.9956 2165.98111 3553.85361 2166.90347 3549.8779 2169.7415 3549.38094 2169.4577 3547.60607 2175.27565 3539.79665 2182.79642 3544.19833 2187.62106 3528.93446 2193.15521 3525.45572 2193.08426 3522.18996 2189.53673 3520.13112 2189.67863 3518.78222 2199.04411 3516.93636 2199.18601 3514.80651 2202.09499 3513.88358 2200.60503 3511.04379 2203.01735 3507.21008 2210.46717 3510.26285 2212.31188 3508.48798 2215.78846 3508.41699 2213.09234 3510.9728 2215.07896 3513.24463 2217.63318 3512.60568 2216.49797 3511.32777 2218.27174 3510.9728 2219.83265 3507.49406 2223.45113 3505.43521 2230.61715 3505.22223 2231.68141 3503.23437 2233.95183 3503.58935 2233.88088 3502.09846 2235.65464 3502.8794 2237.85411 3498.40673 2242.11115 3496.63187 2246.43914 3497.27082 2251.26378 3494.64401 2253.6761 3496.77386 2262.11923 3498.47773 2269.99475 3496.56087 2268.15004 3490.8103 2270.63331 3485.98266 2274.03894 3484.63376 2279.71499 3477.25031 2281.06305 3471.21576 2296.95599 3454.24802 2296.95599 3454.24802 2299.01356 3451.62121 2299.01356 3451.62121 2301.42588 3451.05326 2302.13539 3445.51567 2297.0979 3443.38583 2298.51691 3436.92531 2293.05371 3431.24573 2292.27325 3428.47694 2292.4861 3425.06919 2296.10459 3423.36532 2299.08451 3417.25977 2305.47007 3417.54375 2306.17958 3416.33684 2309.30141 3418.2537 2314.40985 3428.61893 2323.27868 3434.51149 2342.71916 3438.84217 2355.49027 3434.2985 2356.83833 3425.63715 2362.44343 3421.51945 2362.44343 3421.51945 2362.94009 3423.01034 2367.33903 3422.79736 2372.44747 3426.56008 2372.23462 3427.83798 2380.7487 3431.6007 2380.53585 3437.42227 2384.50908 3442.3919 2386.99236 3443.03085 2388.69517 3439.05515 2392.3846 3438.55819 2392.3846 3438.55819 2393.09411 3443.8118 2395.08073 3446.01263 2392.95221 3448.78143 2395.64833 3453.1121 2393.66172 3456.51985 2396.64164 3460.49555 2395.86119 3462.98037 2398.13161 3464.61325 2396.92545 3473.41659 2393.73267 3475.54643 2389.68848 3474.26853 2388.12757 3471.78371 2385.64429 3472.63565 2382.52247 3470.93178 2386.85045 3478.45722 2385.57334 3480.0901 2386.14095 3483.99481 2388.62422 3487.04758 2387.48901 3488.68046 2394.65502 3503.87333 2390.82369 3510.12086 2394.44217 3512.81866 2396.9964 3520.77007 2399.55062 3523.18389 2397.8478 3526.66263 2399.33777 3532.20022 2404.37526 3538.51875 2402.6015 3541.00357 2402.53055 3546.54115 2407.21329 3552.29173 2406.07808 3556.40942 2410.12226 3560.24313 2409.34181 3566.20669 2411.61223 3567.91056 2412.03793 3571.53129 2409.41276 3574.79705 2410.47702 3577.35286 2406.50378 3582.2515 2411.04462 3583.88437 2410.40607 3588.28605 2416.43687 3599.00625 2415.94022 3600.9941 2418.49444 3601.42007 2419.133 3604.47284 2423.74479 3608.44855 2427.22137 3620.09168 2431.69126 3624.91932 2439.07012 3627.61712 2440.13438 3630.81188 2440.20534 3634.50361 2438.21872 3638.05335 2442.61766 3647.21166 2438.07682 3651.96831 2440.06343 3656.29899 2438.28967 3660.91364 2439.49583 3664.32139 2437.29636 3663.82443 2436.16115 3665.74129 2435.16784 3679.08829 2442.68861 3685.6908 2445.38473 3695.20409 2454.75022 3703.43948 2453.1893 3704.5754 2454.67927 3707.41518 2453.68596 3707.41518 2453.89881 3712.81078 2456.24018 3717.78041 2463.90285 3720.26523 2466.17327 3723.67298 2464.89616 3729.84952 2466.31517 3735.24511 2468.23084 3735.74208 2468.94034 3743.83548 2465.67661 3749.87003 2467.87608 3755.69159 2460.92292 3759.95128 2463.76095 3767.97368 2463.9738 3776.77702 2471.21076 3792.18288 2470.21746 3795.44864 2474.6164 3802.05114 2474.40354 3807.73072 2474.40354 3807.73072 2471.84932 3809.50559 2465.88947 3809.15062 2461.13577 3804.53596 2453.11835 3804.10999 2450.63508 3804.32298 2448.86131 3807.65973 2446.66184 3807.09177 2444.10762 3810.35753 2437.01256 3808.51166 2436.58685 3812.70035 2434.10358 3812.27438 2432.40076 3815.04318 2429.20799 3826.18935 2424.24144 3826.75731 2423.95764 3832.93385 2420.1263 3838.75541 2424.52524 3843.29908 2424.02859 3847.0618 2428.99513 3847.34577 2431.90411 3849.40462 2435.66449 3849.54661 2438.14777 3847.27478 2439.99248 3848.97865 2441.4115 3846.84881 2448.57751 3846.35185 2453.89881 3843.86703 2454.25356 3846.91981 2452.05409 3851.0375 2454.46641 3851.53446 2458.15585 3857.64001 2458.72345 3870.56105 2458.72345 3870.56105 2458.72345 3873.68482 2458.72345 3873.68482 2457.44634 3874.74974 2459.14916 3887.45779 2470.50126 3899.88187 2473.05548 3906.34239 2473.05548 3906.34239 2475.89351 3911.31202 2475.89351 3911.31202 2478.09298 3914.08081 2481.0729 3913.44186 2482.91762 3916.70761 2481.0729 3923.45211 2481.85336 3929.27368 2479.29914 3936.94111 2474.19069 3940.34886 2474.97115 3942.97566 2473.62309 3946.02843 2476.24826 3949.08121 2473.90689 3950.5721 2474.11974 3954.40581 2472.70073 3953.48288 2470.21746 3957.81356 2471.49457 3960.08539 2469.64985 3961.2213 2465.88947 3960.29837 2464.5414 3964.27408 2460.85197 3962.28622 2457.51729 3967.25585 2457.09159 3964.98402 2454.82117 3964.77104 2454.18261 3968.88873 2452.4798 3966.6169 2450.70603 3968.88873 2447.3004 3966.75889 2447.4423 3970.30863 2441.76625 3971.23156 2440.84389 3974.85229 2443.82382 3975.49124 2444.46237 3977.05312 2441.12769 3978.47302 2437.50921 3986.7794 2439.77963 4009.85268 2424.38334 4015.60326 2416.64972 4015.88724 2412.25078 4022.98671 2412.25078 4022.98671 2410.26417 4023.69665 2406.85853 4020.50189 2402.81435 4022.41875 2398.69921 4018.15907 2387.20521 4019.36598 2378.97493 4010.9886 2373.72459 4011.48556 2370.248 4014.68033 2359.0378 4009.99467 2349.95612 4009.14274 2349.24662 4004.81206 2353.007 3998.28055 2352.22654 3995.22777 2345.13148 3990.32914 2343.92532 3986.63741 2340.94539 3985.07553 2342.5063 3982.37773 2340.44874 3980.17689 2330.79945 3976.91114 2329.30949 3974.07135 2334.06318 3969.03072 2332.07656 3968.95973 2332.57322 3966.33292 2330.8704 3964.91303 2331.79276 3961.07931 2321.85967 3954.26382 2316.89312 3947.51932 2314.26795 3938.64498 2316.46742 3936.65713 2314.69365 3934.10132 2316.11267 3931.61651 2312.21038 3928.63473 2311.14612 3924.87201 2304.05106 3925.29798 2304.05106 3925.29798 2299.72307 3921.53526 2299.72307 3921.53526 2298.02025 3921.39327 2298.37501 3913.51285 2296.67219 3910.88605 2298.0912 3908.11725 2294.25987 3903.5026 2291.9185 3903.28961 2290.99614 3898.036 2288.22907 3896.97108 2288.65477 3894.27328 2285.03629 3894.77025 2277.08982 3891.29151 2267.08578 3890.0846 2264.4606 3885.9669 2258.00409 3881.70722 2255.80462 3883.19811 2250.19952 3883.3401 2248.56766 3881.63622 2241.82735 3881.63622 2239.27312 3883.3401 2237.78316 3880.21633 2235.65464 3881.42324 2233.59707 3879.43539 2226.07631 3877.51853 2224.79919 3874.60775 2221.32261 3873.47183 2219.97455 3870.91602 2216.28512 3871.48398 2214.08565 3868.5022 2206.70678 3867.72126 2201.81119 3865.09445 2199.89552 3867.08231 2193.72281 3868.00524 2190.31718 3871.48398 2189.74958 3869.70911 2187.55011 3871.55497 2186.06015 3867.79225 2181.66121 3868.5732 2180.31314 3866.58534 2177.33322 3870.98702 2173.78568 3870.34806 2172.86333 3872.90387 2170.52196 3873.11686 2168.74819 3876.09864 2164.1364 3878.51246 2159.66651 3874.82073 2154.69996 3874.03979 2153.3519 3875.03371 2153.84856 3877.37654 2151.01053 3878.37047 2145.54733 3878.72544 2142.1417 3876.80858 2139.51653 3881.49423 2131.42815 3879.08041 2126.31971 3875.53068 2118.86989 3877.16356 2115.03856 3873.75581 2105.88592 3875.38869 2101.27413 3871.2 2093.04386 3874.03979 2087.36781 3873.75581 2085.94879 3875.81466 2086.8002 3878.44146 2083.89122 3878.29947 2073.88718 3884.689 2073.10673 3881.9912 2069.13349 3882.91413 2067.92733 3885.32795 2060.69037 3884.26303 2056.22048 3881.21026 2053.66625 3882.84313 2051.46678 3880.92628 2047.4226 3882.55915 2046.07453 3885.75392 2044.51362 3885.11496 2040.61134 3887.52879 2039.40517 3890.36857 2036.28335 3890.22658 2031.4587 3893.13737 2031.033 3898.88794 2028.05307 3897.68103 2027.41452 3900.16585 2024.29269 3900.8048 2023.93793 3903.00563 2019.18424 3904.07055 2015.84956 3906.91034 2015.84956 3906.91034 2024.22174 3886.17989 2020.3904 3833.35982 2019.32614 3823.98851 2002.72369 3787.63922 2001.87229 3772.02038 1995.13198 3761.72614 1988.46262 3742.06061 1972.14397 3730.41747 1965.0489 3728.64261 1958.37954 3722.96303 1962.21088 3714.79864 1959.94046 3710.25497 1963.91369 3705.9243 1966.53887 3698.68283 1959.37285 3693.85519 1965.40366 3686.68473 1966.39697 3676.46149 1964.907 3674.61562 1961.50137 3674.68662 1958.5924 3671.49186 1959.4438 3652.67826 1955.82532 3649.55449 1955.18677 3646.28873 1934.39823 3649.34151 1927.01936 3640.68015 1923.96848 3639.18926 1923.32993 3634.5746 1926.52271 3632.01879 1926.38081 3620.73063 1932.05686 3620.02069 1933.12112 3615.54802 1917.58293 3608.66153 1914.4611 3605.18279 1917.44103 3594.74657 1922.12377 3586.01422 1924.18134 3580.47663 1928.08362 3576.50092 1930.77975 3577.13988 1935.17869 3565.92271 1938.30051 3560.95308 1942.4866 3556.33842 1939.64858 3551.15581 1943.12516 3545.33424 1942.0609 3532.55519 1936.17199 3525.45572 1936.17199 3521.97698 1942.6285 3514.30955 1944.11847 3508.55898 1954.40631 3500.82055 1954.61916 3495.63794 1957.95384 3487.04758 1961.00472 3489.17742 1961.92708 3491.80423 1972.07302 3491.80423 1972.64062 3483.14287 1975.6915 3480.37408"></polygon>
                    </g>
                </g>
            </g>
            <g id="marker" transform="translate(187.000000, 334.000000)">
                <g>
                    <use fill="black" fill-opacity="1" filter="url(#filter-2)" xlink:href="#path-1"></use>
                    <use stroke="#FFFFFF" stroke-width="3" fill="#E64F3F" fill-rule="evenodd" xlink:href="#path-1"></use>
                </g>
            </g>
            <g id="searchresult-card" filter="url(#filter-3)" transform="translate(-6.000000, 0.000000)">
                <g id="Rectangle-6">
                    <use fill="black" fill-opacity="1" filter="url(#filter-5)" xlink:href="#path-4"></use>
                    <use fill="#000000" fill-rule="evenodd" xlink:href="#path-4"></use>
                </g>
                <text id="arrow_back---material" font-family="material" font-size="25" font-weight="normal" fill="#FFFFFF">
                    <tspan x="21" y="34"></tspan>
                </text>
                <g id="photo-large" transform="translate(0.000000, 52.000000)">
                    <rect id="Rectangle-2" fill="#969696" x="5.77272727" y="0" width="375.227273" height="476"></rect>
                    <path d="M2.88636364,472.338462 L378.113636,3.66153846" id="Line" stroke="#A8A8A8" stroke-linecap="square"></path>
                    <path d="M8.65909091,3.66153846 L378.113636,465.015385" id="Line" stroke="#B6B6B6" stroke-linecap="square"></path>
                </g>
                <g id="prev-next" transform="translate(21.000000, 270.000000)" font-size="35" font-family="material" fill="#FFFFFF" font-weight="normal">
                    <text id="keyboard_arrow_left---material">
                        <tspan x="0" y="30"></tspan>
                    </text>
                    <text id="keyboard_arrow_left---material" transform="translate(326.500000, 17.500000) scale(-1, 1) translate(-326.500000, -17.500000) ">
                        <tspan x="309" y="30"></tspan>
                    </text>
                </g>
            </g>
            <g id="details" transform="translate(21.000000, 560.000000)">
                <text id="CAMERA" font-family="Roboto-Medium, Roboto" font-size="12" font-weight="400" fill="#FFFFFF">
                    <tspan x="0" y="11">CAMERA</tspan>
                </text>
                <text id="ISO" font-family="Roboto-Regular, Roboto" font-size="10" font-weight="normal" fill="#D1D1D1">
                    <tspan x="0" y="31">ISO</tspan>
                </text>
                <text id="GENERAL" font-family="Roboto-Medium, Roboto" font-size="12" font-weight="400" fill="#FFFFFF">
                    <tspan x="180" y="11">GENERAL</tspan>
                </text>
                <text id="Altitude" font-family="Roboto-Regular, Roboto" font-size="10" font-weight="normal" fill="#D1D1D1">
                    <tspan x="180" y="31">Altitude</tspan>
                </text>
                <text id="Date" font-family="Roboto-Regular, Roboto" font-size="10" font-weight="normal" fill="#D1D1D1">
                    <tspan x="180" y="46">Date</tspan>
                </text>
                <text id="08/20/15-10:31-am" font-family="Roboto-Regular, Roboto" font-size="10" font-weight="normal" fill="#D1D1D1">
                    <tspan x="240" y="47">08/20/15 10:31 am</tspan>
                </text>
                <text id="75m" font-family="Roboto-Regular, Roboto" font-size="10" font-weight="normal" fill="#D1D1D1">
                    <tspan x="240" y="32">75m</tspan>
                </text>
                <text id="100" font-family="Roboto-Regular, Roboto" font-size="10" font-weight="normal" fill="#D1D1D1">
                    <tspan x="70" y="31">100</tspan>
                </text>
                <text id="1/500" font-family="Roboto-Regular, Roboto" font-size="10" font-weight="normal" fill="#D1D1D1">
                    <tspan x="70" y="46">1/500</tspan>
                </text>
                <text id="20-mm" font-family="Roboto-Regular, Roboto" font-size="10" font-weight="normal" fill="#D1D1D1">
                    <tspan x="70" y="77">20 mm</tspan>
                </text>
                <text id="Shutter" font-family="Roboto-Regular, Roboto" font-size="10" font-weight="normal" fill="#D1D1D1">
                    <tspan x="0" y="46">Shutter</tspan>
                </text>
                <text id="Aperture" font-family="Roboto-Regular, Roboto" font-size="10" font-weight="normal" fill="#D1D1D1">
                    <tspan x="0" y="61">Aperture</tspan>
                </text>
                <text id="Focal" font-family="Roboto-Regular, Roboto" font-size="10" font-weight="normal" fill="#D1D1D1">
                    <tspan x="0" y="77">Focal</tspan>
                </text>
                <path d="M153.5,2.5 L153.5,81.7275205" id="Line" stroke="#979797" stroke-linecap="square"></path>
            </g>
            <text id="7/66" font-family="Roboto-Regular, Roboto" font-size="20" font-weight="normal" fill="#FFFFFF">
                <tspan x="321" y="32">7/66</tspan>
            </text>
        </g>
    </g>
</svg>